<svg height="512" viewBox="0 0 64 64" width="512" xmlns="http://www.w3.org/2000/svg"><g id="Blueprint-Cogwheel-Plan-Architecture-Construction"><path d="m54 11v46a4.01 4.01 0 0 1 -4 4h-36a4 4 0 0 1 -4-4v-50a4 4 0 0 1 4-4h32v6a2.006 2.006 0 0 0 2 2z" fill="#5aaae7"/><path d="m54 51v6a3.989 3.989 0 0 1 -.54 2h-19.46l-3-2h-2a2 2 0 0 1 0-4h2l3-2z" fill="#3d9ae2"/><path d="m59.83 50.17a4 4 0 0 1 -2.83 6.83h-2v-8h2a4.025 4.025 0 0 1 2.83 1.17z" fill="#e0e0e2"/><path d="m54 49h-2v4 4h2 1v-8z" fill="#d8d7da"/><path d="m27 39h27v8h-27z" fill="#3d9ae2"/><path d="m54 37h-29v8h6 4 4 4 4 4 3 1 6v-8z" fill="#ffd422"/><path d="m54 11h-6a2.006 2.006 0 0 1 -2-2v-6z" fill="#3d9ae2"/><path d="m33 53h19v4h-19z" fill="#00ccb3"/><path d="m33 49h19v4h-19z" fill="#00b39d"/><path d="m43.68 24.47a9.8 9.8 0 0 1 -1.09 2.62l2.02 2.69-2.83 2.83-2.69-2.02a9.8 9.8 0 0 1 -2.62 1.09l-.47 3.32h-4l-.47-3.32a9.8 9.8 0 0 1 -2.62-1.09l-2.69 2.02-2.83-2.83 2.02-2.69a9.8 9.8 0 0 1 -1.09-2.62l-3.32-.47v-4l3.32-.47a9.8 9.8 0 0 1 1.09-2.62l-2.02-2.69 2.83-2.83 2.69 2.02a9.8 9.8 0 0 1 2.62-1.09l.47-3.32h4l.47 3.32a9.8 9.8 0 0 1 2.62 1.09l2.69-2.02 2.83 2.83-2.02 2.69a9.8 9.8 0 0 1 1.09 2.62l3.32.47v4z" fill="#3d9ae2"/><path d="m41.68 22.47a9.8 9.8 0 0 1 -1.09 2.62l2.02 2.69-2.83 2.83-2.69-2.02a9.8 9.8 0 0 1 -2.62 1.09l-.47 3.32h-4l-.47-3.32a9.8 9.8 0 0 1 -2.62-1.09l-2.69 2.02-2.83-2.83 2.02-2.69a9.8 9.8 0 0 1 -1.09-2.62l-3.32-.47v-4l3.32-.47a9.8 9.8 0 0 1 1.09-2.62l-2.02-2.69 2.83-2.83 2.69 2.02a9.8 9.8 0 0 1 2.62-1.09l.47-3.32h4l.47 3.32a9.8 9.8 0 0 1 2.62 1.09l2.69-2.02 2.83 2.83-2.02 2.69a9.8 9.8 0 0 1 1.09 2.62l3.32.47v4z" fill="#ff9811"/><circle cx="32" cy="20" fill="#ffd422" r="5"/><path d="m33 53v4h-1l-3-2v-4l3-2h1z" fill="#c6c5ca"/><path d="m29 51v4h-2a2 2 0 0 1 0-4z" fill="#898890"/><path d="m24 56-14-14-7-7v26h26zm-14 1h-3v-12.34l3 3 9.34 9.34z" fill="#ffa733"/><g fill="#ebbf00"><path d="m42 40h2v5h-2z"/><path d="m54 40h2v5h-2z"/><path d="m46 42h2v3h-2z"/><path d="m50 42h2v3h-2z"/><path d="m30 40h2v5h-2z"/><path d="m38 42h2v3h-2z"/><path d="m34 42h2v3h-2z"/></g><path d="m15 34h6v2h-6z" fill="#1e81ce"/><path d="m15 38h6v2h-6z" fill="#1e81ce"/><path d="m15 42h6v2h-6z" fill="#1e81ce"/></g></svg>