<svg xmlns="http://www.w3.org/2000/svg" viewBox="0 0 1137 644" width="1137" height="644">
	<defs>
		<linearGradient id="grd1" gradientUnits="userSpaceOnUse"  x1="749.234" y1="53.339" x2="916.921" y2="53.339">
			<stop offset="0" stop-color="#fdfdfd"  />
			<stop offset="0.005" stop-color="#fdfdfd"  />
			<stop offset="1" stop-color="#fdfdfd"  />
		</linearGradient>
		<linearGradient id="grd2" gradientUnits="userSpaceOnUse"  x1="735.197" y1="131.946" x2="822.41" y2="43.315">
			<stop offset="0" stop-color="#fdfdfd"  />
			<stop offset="0.005" stop-color="#fdfdfd"  />
			<stop offset="1" stop-color="#fdfdfd"  />
		</linearGradient>
		<linearGradient id="grd3" gradientUnits="userSpaceOnUse"  x1="762.638" y1="-0.041" x2="844.721" y2="-0.041">
			<stop offset="0" stop-color="#fdfdfd"  />
			<stop offset="0.005" stop-color="#fdfdfd"  />
			<stop offset="1" stop-color="#fdfdfd"  />
		</linearGradient>
		<linearGradient id="grd4" gradientUnits="userSpaceOnUse"  x1="763.019" y1="63.283" x2="825.837" y2="-35.185">
			<stop offset="0" stop-color="#dce3d9"  />
			<stop offset="0.005" stop-color="#dce3d9"  />
			<stop offset="1" stop-color="#e3eedc"  />
		</linearGradient>
		<linearGradient id="grd5" gradientUnits="userSpaceOnUse"  x1="559.166" y1="408.865" x2="286.201" y2="408.865">
			<stop offset="0" stop-color="#fffbf3"  />
			<stop offset="1" stop-color="#fff0f2"  />
		</linearGradient>
		<linearGradient id="grd6" gradientUnits="userSpaceOnUse"  x1="559.166" y1="423.785" x2="286.201" y2="423.784">
			<stop offset="0" stop-color="#fffbf3"  />
			<stop offset="1" stop-color="#fff0f2"  />
		</linearGradient>
		<linearGradient id="grd7" gradientUnits="userSpaceOnUse"  x1="559.166" y1="438.708" x2="286.201" y2="438.708">
			<stop offset="0" stop-color="#fffbf3"  />
			<stop offset="1" stop-color="#fff0f2"  />
		</linearGradient>
		<linearGradient id="grd8" gradientUnits="userSpaceOnUse"  x1="164.787" y1="458.073" x2="236.662" y2="458.073">
			<stop offset="0" stop-color="#40d5e6"  />
			<stop offset="1" stop-color="#5577ff"  />
		</linearGradient>
		<linearGradient id="grd9" gradientUnits="userSpaceOnUse"  x1="224.997" y1="519.585" x2="311.27" y2="519.585">
			<stop offset="0" stop-color="#40d5e6"  />
			<stop offset="1" stop-color="#5577ff"  />
		</linearGradient>
		<linearGradient id="grd10" gradientUnits="userSpaceOnUse"  x1="230.404" y1="532.155" x2="297.714" y2="532.155">
			<stop offset="0" stop-color="#40d5e6"  />
			<stop offset="1" stop-color="#5577ff"  />
		</linearGradient>
		<linearGradient id="grd11" gradientUnits="userSpaceOnUse"  x1="215.12" y1="475.666" x2="275.122" y2="475.666">
			<stop offset="0" stop-color="#40d5e6"  />
			<stop offset="1" stop-color="#5577ff"  />
		</linearGradient>
		<linearGradient id="grd12" gradientUnits="userSpaceOnUse"  x1="188.109" y1="590.43" x2="260.444" y2="590.43">
			<stop offset="0" stop-color="#ff9340"  />
			<stop offset="1" stop-color="#ffce45"  />
		</linearGradient>
		<linearGradient id="grd13" gradientUnits="userSpaceOnUse"  x1="188.109" y1="590.43" x2="260.444" y2="590.43">
			<stop offset="0" stop-color="#c97332"  />
			<stop offset="1" stop-color="#ffce45"  />
		</linearGradient>
		<linearGradient id="grd14" gradientUnits="userSpaceOnUse"  x1="357.732" y1="9.415" x2="298.659" y2="9.415">
			<stop offset="0" stop-color="#40d5e6"  />
			<stop offset="1" stop-color="#5577ff"  />
		</linearGradient>
		<linearGradient id="grd15" gradientUnits="userSpaceOnUse"  x1="356.65" y1="125.688" x2="656.778" y2="125.688">
			<stop offset="0" stop-color="#ffc05c"  />
			<stop offset="1" stop-color="#ff3857"  />
		</linearGradient>
		<linearGradient id="grd16" gradientUnits="userSpaceOnUse"  x1="356.65" y1="120.545" x2="656.935" y2="120.545">
			<stop offset="0" stop-color="#40d5e6"  />
			<stop offset="1" stop-color="#5577ff"  />
		</linearGradient>
	</defs>
	<style>
		tspan { white-space:pre }
		.shp0 { fill: none } 
		.shp1 { opacity: 0.541;fill: #000000 } 
		.shp2 { fill: #fcfcfc } 
		.shp3 { fill: url(#grd1) } 
		.shp4 { fill: url(#grd2) } 
		.shp5 { fill: url(#grd3) } 
		.shp6 { fill: url(#grd4) } 
		.shp7 { fill: #b8d6ff } 
		.shp8 { fill: #e7e7e7 } 
		.shp9 { fill: #ffffff } 
		.shp10 { fill: #f9f9fa } 
		.shp11 { fill: #fefefe } 
		.shp12 { fill: #d4dbe1 } 
		.shp13 { fill: #c5ccd1 } 
		.shp14 { fill: #fafcff } 
		.shp15 { fill: url(#grd5) } 
		.shp16 { fill: url(#grd6) } 
		.shp17 { fill: url(#grd7) } 
		.shp18 { fill: #4aafff } 
		.shp19 { fill: #1487e3 } 
		.shp20 { fill: #1a598c } 
		.shp21 { fill: #2273b5 } 
		.shp22 { fill: #3788cc } 
		.shp23 { fill: url(#grd8) } 
		.shp24 { fill: url(#grd9) } 
		.shp25 { fill: url(#grd10) } 
		.shp26 { fill: url(#grd11) } 
		.shp27 { fill: url(#grd12) } 
		.shp28 { fill: url(#grd13) } 
		.shp29 { fill: url(#grd14) } 
		.shp30 { fill: #e2d2ca } 
		.shp31 { fill: #706865 } 
		.shp32 { fill: #ccbdb7 } 
		.shp33 { fill: #998e89 } 
		.shp34 { fill: #b59074 } 
		.shp35 { fill: #ffb555 } 
		.shp36 { fill: #424773 } 
		.shp37 { fill: #292c47 } 
		.shp38 { fill: #eea886 } 
		.shp39 { fill: #3a3f47 } 
		.shp40 { fill: #918783 } 
		.shp41 { fill: #5e5854 } 
		.shp42 { fill: #bfb2ac } 
		.shp43 { fill: #b8aba5 } 
		.shp44 { fill: #f5f7ff } 
		.shp45 { fill: #918681 } 
		.shp46 { fill: #dfe1e8 } 
		.shp47 { fill: #e0e0e0 } 
		.shp48 { fill: #b8b8b8 } 
		.shp49 { fill: #d9d9d9 } 
		.shp50 { fill: url(#grd15) } 
		.shp51 { fill: url(#grd16) } 
		.shp52 { fill: #7ac4ff } 
		.shp53 { fill: #5c544d } 
		.shp54 { fill: #3c4145 } 
		.shp55 { fill: #33373b } 
		.shp56 { fill: #fccca2 } 
		.shp57 { fill: #495054 } 
		.shp58 { fill: #d6d6d6 } 
		.shp59 { fill: #c98462 } 
		.shp60 { fill: #de9d7d } 
		.shp61 { fill: #d64c4a } 
		.shp62 { fill: #3d416b } 
		.shp63 { fill: #cfbeb6 } 
		.shp64 { fill: #23263d } 
		.shp65 { fill: #ff5a58 } 
		.shp66 { fill: #807066 } 
		.shp67 { fill: #191b2b } 
		.shp68 { fill: #a77860 } 
		.shp69 { fill: #b03e3d } 
		.shp70 { fill: #282b45 } 
		.shp71 { fill: #eddad3 } 
	</style>
	<path id="backgroundrect" class="shp0" d="M0 0L100 0L100 100L0 100L0 0Z" />
	<g id="Layer">
		<path id="svg_1" class="shp1" d="M650.4 132.76C579.64 133.3 511.67 117.31 446.67 99.49C381.67 81.67 317.2 61.66 247.83 53.49C203.21 48.21 152.43 49.04 117.35 69.49C83.6 89.15 73.62 121.37 68.69 151.11C64.98 173.49 63.17 196.97 76.23 217.34C85.3 231.47 100.92 243.07 111.91 256.53C150.17 303.37 126.45 363.64 88.51 412.04C70.74 434.71 49.94 456.53 36.4 480.53C22.86 504.53 17.22 531.64 30.61 555.13C43.89 578.42 74.15 595.19 106.69 606.58C172.79 629.72 249.86 634.28 324.92 635.75C491.06 638.99 657.63 629.11 823.74 619.24C885.22 615.59 946.97 611.91 1007.22 602.09C1040.68 596.64 1075.15 588.66 1098.97 571.49C1129.21 549.69 1135.65 514.37 1113.97 489.15C1077.6 446.86 980.97 439.47 954.97 393.62C940.66 368.38 953.4 339.25 971.97 314.71C1011.91 262.06 1080.31 214.71 1081.92 156.08C1083.03 115.83 1047.92 76.8 995.24 59.65C940 41.65 864.46 46.86 825.4 81.27C785.24 116.64 712.9 132.29 650.4 132.76Z" />
		<path id="Path 6" class="shp2" d="M810.11 469.18L550.86 469.18L550.86 426.98L642.05 426.98L642.05 420.59L550.86 420.59L550.86 412.06L620.09 412.06L620.09 405.67L550.86 405.67L550.86 349.94L647.93 349.94C650.57 349.94 652.71 347.81 652.71 345.17L652.71 267.34C652.71 264.7 650.57 262.56 647.93 262.56L550.86 262.56L550.86 253.32L647.93 253.32C650.57 253.32 652.71 251.18 652.71 248.54L652.71 236.7C652.71 234.06 650.57 231.92 647.93 231.92L546.96 231.92C546.87 231.92 546.79 231.92 546.71 231.92C543.13 227.37 537.58 224.44 531.34 224.44L320.69 224.44L320.69 29.93C320.69 18.6 329.87 9.41 341.21 9.41L762.24 9.41C760.77 24.86 762.59 39.6 764.94 50.93C763.39 53.61 761.94 56.25 760.6 58.81C747.8 83.17 740.1 106.46 747.96 117.46C748.43 118.11 748.94 118.71 749.5 119.26C752.63 122.34 757.45 124.06 764.31 124.06C770.98 124.06 779.59 122.42 790.46 118.79C808.2 112.87 821.01 105.17 830.63 96.26L830.63 181.93L709.26 181.93C699.06 181.93 690.79 190.2 690.79 200.41L690.79 435.61C690.79 445.82 699.06 454.09 709.26 454.09L829.91 454.09C827.53 462.79 819.57 469.18 810.11 469.18Z" />
		<path id="Path 7" class="shp3" d="M764.31 124.06C757.45 124.06 752.63 122.34 749.5 119.26C760.63 113.35 782 100.7 792.57 85.77C797.54 78.72 801.85 70.73 806.4 62.28C813.23 49.59 820.24 36.56 830.17 25.6C830.47 27 830.63 28.45 830.63 29.93L830.63 96.26C821.01 105.17 808.2 112.87 790.46 118.79C779.59 122.42 770.98 124.06 764.31 124.06ZM747.96 117.46C740.1 106.46 747.8 83.17 760.6 58.81C761.94 56.25 763.39 53.61 764.94 50.93C766.72 59.46 768.8 66.06 770.02 69.56C770.6 71.25 770.99 72.22 771.03 72.32C771.26 71.42 771.48 70.51 771.7 69.65C779.76 37.61 788.29 29.6 809.33 9.41L810.11 9.41C819.02 9.41 826.6 15.09 829.44 23.02C818.83 34.39 811.51 47.98 804.4 61.2C799.87 69.59 795.61 77.52 790.7 84.45C780.4 99.01 758.81 111.71 747.96 117.46Z" />
		<path id="Path 8" class="shp4" d="M749.5 119.26C748.94 118.71 748.43 118.11 747.96 117.46C758.81 111.71 780.4 99.01 790.7 84.45C795.61 77.52 799.87 69.59 804.4 61.2C811.51 47.98 818.83 34.39 829.44 23.02C829.74 23.85 829.98 24.71 830.17 25.6C820.24 36.56 813.23 49.59 806.4 62.28C801.85 70.73 797.54 78.72 792.57 85.77C782 100.7 760.63 113.35 749.5 119.26Z" />
		<path id="Path 9" class="shp5" d="M771.7 69.65C770.72 48.41 779.11 25.39 787.23 9.41L809.33 9.41C788.29 29.6 779.76 37.61 771.7 69.65ZM770.02 69.56C768.8 66.06 766.72 59.46 764.94 50.93C762.59 39.6 760.77 24.86 762.24 9.41L785.23 9.41C777.08 25.84 769.17 48.84 770.02 69.56Z" />
		<path id="Path 10" class="shp6" d="M771.03 72.32C770.99 72.22 770.6 71.25 770.02 69.56C769.17 48.84 777.08 25.84 785.23 9.41L787.23 9.41C779.11 25.39 770.72 48.41 771.7 69.65C771.48 70.51 771.26 71.42 771.03 72.32Z" />
		<path id="Path 11" class="shp7" d="M647.93 231.92L546.96 231.92C544.32 231.92 542.18 234.06 542.18 236.7L542.18 248.54C542.18 251.18 544.32 253.32 546.96 253.32L647.93 253.32C650.57 253.32 652.71 251.18 652.71 248.54L652.71 236.7C652.71 234.06 650.57 231.92 647.93 231.92Z" />
		<path id="Path 12" class="shp8" d="M647.93 349.94L550.86 349.94L550.86 262.56L647.93 262.56C650.57 262.56 652.71 264.7 652.71 267.34L652.71 345.17C652.71 347.81 650.57 349.94 647.93 349.94Z" />
		<path id="Path 13" class="shp7" d="M787.15 85.45L724.82 85.45L724.82 79.2L787.15 79.2L787.15 85.45ZM796.45 104.81L724.82 104.81L724.82 98.56L796.45 98.56L796.45 104.81ZM761.77 124.06L724.71 124.06L724.71 117.81L761.77 117.81L761.77 124.06ZM781.82 143.31L724.71 143.31L724.71 137.06L781.82 137.06L781.82 143.31Z" />
		<path id="Path 14" class="shp9" d="M620.09 412.06L347.39 412.06L347.39 405.67L620.09 405.67L620.09 412.06ZM642.05 426.98L347.39 426.98L347.39 420.59L642.05 420.59L642.05 426.98ZM538.58 441.91L347.39 441.91L347.39 435.51L538.58 435.51L538.58 441.91Z" />
		<path id="Path 15" class="shp10" d="M861.39 454.09L829.91 454.09C830.38 452.36 830.63 450.54 830.63 448.66L830.63 181.93L861.39 181.93C871.59 181.93 879.87 190.2 879.87 200.41L879.87 435.61C879.87 445.82 871.59 454.09 861.39 454.09Z" />
		<path id="Path 16" class="shp11" d="M829.91 454.09L709.26 454.09C699.06 454.09 690.79 445.82 690.79 435.61L690.79 200.41C690.79 190.2 699.06 181.93 709.26 181.93L830.63 181.93L830.63 448.66C830.63 450.54 830.38 452.36 829.91 454.09Z" />
		<path id="Path 17" class="shp12" d="M847.05 357.6L716.25 357.6C714.8 357.6 713.63 356.43 713.63 354.98L713.63 350.56C713.63 349.11 714.8 347.94 716.25 347.94L847.05 347.94C848.5 347.94 849.67 349.11 849.67 350.56L849.67 354.98C849.67 356.43 848.5 357.6 847.05 357.6ZM807.82 378.92L716.25 378.92C714.8 378.92 713.63 377.75 713.63 376.3L713.63 371.89C713.63 370.44 714.8 369.26 716.25 369.26L807.82 369.26C809.27 369.26 810.45 370.44 810.45 371.89L810.45 376.3C810.45 377.75 809.27 378.92 807.82 378.92ZM826.01 400.24L716.25 400.24C714.8 400.24 713.63 399.07 713.63 397.62L713.63 393.21C713.63 391.76 714.8 390.58 716.25 390.58L826.01 390.58C827.47 390.58 828.64 391.76 828.64 393.21L828.64 397.62C828.64 399.07 827.47 400.24 826.01 400.24Z" />
		<path id="Path 18" class="shp9" d="M800.97 467.03L769.69 467.03C764.46 467.03 760.21 462.78 760.21 457.54L760.21 426.27C760.21 421.04 764.46 416.79 769.69 416.79L800.97 416.79C806.2 416.79 810.45 421.04 810.45 426.27L810.45 457.54C810.45 462.78 806.2 467.03 800.97 467.03Z" />
		<path id="Path 19" class="shp13" d="M787.71 451.9L782.95 451.9L782.95 431.91L787.71 431.91L787.71 451.9ZM775.34 444.28L775.34 439.53L795.32 439.53L795.32 444.28L775.34 444.28Z" />
		<path id="Path 20" class="shp11" d="M531.34 517.89L249.92 517.89C239.14 517.89 230.4 509.15 230.4 498.37L230.4 243.96C230.4 233.19 239.14 224.44 249.92 224.44L320.69 224.44L320.69 448.66C320.69 460 329.87 469.18 341.21 469.18L550.86 469.18L550.86 498.37C550.86 509.15 542.12 517.89 531.34 517.89Z" />
		<path id="Path 21" fill-rule="evenodd" class="shp9" d="M550.86 469.18L341.21 469.18C329.87 469.18 320.69 460 320.69 448.66L320.69 224.44L531.34 224.44C537.58 224.44 543.13 227.37 546.71 231.92C544.19 232.06 542.18 234.14 542.18 236.7L542.18 248.54C542.18 251.18 544.32 253.32 546.96 253.32L550.86 253.32L550.86 262.56L546.96 262.56C544.32 262.56 542.18 264.7 542.18 267.34L542.18 345.17C542.18 347.81 544.32 349.94 546.96 349.94L550.86 349.94L550.86 405.67L347.39 405.67L347.39 412.06L550.86 412.06L550.86 420.59L347.39 420.59L347.39 426.98L550.86 426.98L550.86 469.18ZM538.58 441.91L538.58 435.51L347.39 435.51L347.39 441.91L538.58 441.91Z" />
		<path id="Path 22" class="shp14" d="M550.86 253.32L546.96 253.32C544.32 253.32 542.18 251.18 542.18 248.54L542.18 236.7C542.18 234.14 544.19 232.06 546.71 231.92C549.31 235.24 550.86 239.42 550.86 243.96L550.86 253.32Z" />
		<path id="Path 23" class="shp11" d="M550.86 349.94L546.96 349.94C544.32 349.94 542.18 347.81 542.18 345.17L542.18 267.34C542.18 264.7 544.32 262.56 546.96 262.56L550.86 262.56L550.86 349.94Z" />
		<path id="Path 24" class="shp9" d="M550.86 412.06L489.38 412.06L489.38 405.67L347.39 405.67L347.39 412.06L347.39 405.67L550.86 405.67L550.86 412.06ZM550.86 426.98L500.82 426.98L500.82 420.59L347.39 420.59L347.39 426.98L347.39 420.59L550.86 420.59L550.86 426.98ZM538.58 441.91L446.94 441.91L446.94 435.51L347.39 435.51L347.39 441.91L347.39 435.51L538.58 435.51L538.58 441.91Z" />
		<path id="Path 25" class="shp15" d="M489.38 412.06L347.39 412.06L347.39 405.67L489.38 405.67L489.38 412.06Z" />
		<path id="Path 26" class="shp16" d="M500.82 426.98L347.39 426.98L347.39 420.59L500.82 420.59L500.82 426.98Z" />
		<path id="Path 27" class="shp17" d="M446.94 441.91L347.39 441.91L347.39 435.51L446.94 435.51L446.94 441.91Z" />
		<path id="Path 28" class="shp18" d="M512.68 327.04L512.4 325.35L471.12 332.11L457.74 360.63L413.23 363.65L398.81 384.92L364.78 384.08L364.73 385.79L399.7 386.66L414.17 365.31L458.86 362.28L472.29 333.65L512.68 327.04Z" />
		<path id="Path 29" class="shp19" d="M462.23 269.43L506.72 269.43C509.53 269.43 511.8 267.15 511.8 264.34C511.8 261.54 509.53 259.26 506.72 259.26L462.23 259.26C459.42 259.26 457.14 261.54 457.14 264.34C457.14 267.15 459.42 269.43 462.23 269.43Z" />
		<path id="Path 30" fill-rule="evenodd" class="shp18" d="M462.23 287.18L506.72 287.18C509.53 287.18 511.8 284.9 511.8 282.09C511.8 279.28 509.53 277 506.72 277L462.23 277C459.42 277 457.14 279.28 457.14 282.09C457.14 284.9 459.42 287.18 462.23 287.18ZM462.23 304.92L506.72 304.92C509.53 304.92 511.8 302.64 511.8 299.83C511.8 297.02 509.53 294.74 506.72 294.74L462.23 294.74C459.42 294.74 457.14 297.02 457.14 299.83C457.14 302.64 459.42 304.92 462.23 304.92ZM427.67 276.82L427.67 262.93C427.67 260.02 425.32 257.66 422.4 257.66L262.68 257.66C259.77 257.66 257.41 260.02 257.41 262.93L257.41 276.82C257.41 279.73 259.77 282.09 262.68 282.09L422.4 282.09C425.32 282.09 427.67 279.73 427.67 276.82Z" />
		<path id="Path 31" class="shp19" d="M422.4 317.13L262.68 317.13C259.77 317.13 257.41 314.77 257.41 311.86L257.41 297.97C257.41 295.06 259.77 292.7 262.68 292.7L422.4 292.7C425.32 292.7 427.67 295.06 427.67 297.97L427.67 311.86C427.67 314.77 425.32 317.13 422.4 317.13Z" />
		<path id="Path 32" fill-rule="evenodd" class="shp18" d="M497.84 456.57C483.05 467.39 463.63 467.34 449.13 457.9C445.68 455.65 442.5 452.86 439.73 449.56C439.12 448.84 438.53 448.08 437.96 447.3C432.24 439.49 429.56 430.38 429.69 421.39C429.89 408.42 435.95 395.69 447.23 387.43C450.95 384.7 454.96 382.67 459.12 381.3C476.28 375.64 495.85 381.33 507.1 396.69C521.07 415.78 516.93 442.59 497.84 456.57ZM498.45 403.02C490.01 391.5 475.34 387.24 462.47 391.48C459.36 392.51 456.35 394.04 453.56 396.08C445.1 402.27 440.56 411.82 440.41 421.54C440.31 428.28 442.32 435.11 446.61 440.97C447.04 441.55 447.49 442.12 447.94 442.66C450.02 445.14 452.4 447.23 454.99 448.91C465.86 455.99 480.42 456.03 491.5 447.91C505.82 437.44 508.93 417.34 498.45 403.02Z" />
		<path id="Path 33" class="shp20" d="M440.41 421.54L429.69 421.39C429.89 408.42 435.95 395.69 447.23 387.43C450.95 384.7 454.96 382.67 459.12 381.3L462.47 391.48C459.36 392.51 456.35 394.04 453.56 396.08C445.1 402.27 440.56 411.82 440.41 421.54Z" />
		<path id="Path 34" class="shp21" d="M447.94 442.66L439.73 449.56C439.12 448.84 438.53 448.08 437.96 447.3C432.24 439.49 429.56 430.38 429.69 421.39L440.41 421.54C440.31 428.28 442.32 435.11 446.61 440.97C447.04 441.55 447.49 442.12 447.94 442.66Z" />
		<path id="Path 35" class="shp22" d="M449.13 457.9C445.68 455.65 442.5 452.86 439.73 449.56L447.94 442.66C450.02 445.14 452.4 447.23 454.99 448.91L449.13 457.9Z" />
		<path id="Path 36" class="shp23" d="M158.66 332.74C167.21 328.65 175.72 355.87 175.72 355.87C190.25 375.08 210.56 349.53 208.58 378.24C205.1 428.47 266.4 394.03 238.12 446.48C209.84 498.93 263.09 476.14 245.52 518.43C227.94 560.72 250.72 611.16 224.28 590.43C224.28 590.43 200.99 539.37 176.98 523.57C152.97 507.78 191.37 489.03 183.85 467.58C172.94 436.41 146.65 437.63 165.61 404.14C184.56 370.65 129.59 346.64 158.66 332.74Z" />
		<path id="Path 37" class="shp9" d="M232.65 571.22C221.19 563.15 207.77 506.98 206.97 473.52C206.56 456.38 201.5 449.24 197.03 442.94C192.75 436.92 189.06 431.71 191.21 419.77C195.32 396.95 184.52 387.1 184.41 387L185.66 385.58C186.14 386 197.39 396.16 193.08 420.11C191.07 431.27 194.38 435.93 198.57 441.84C202.97 448.04 208.44 455.75 208.87 473.47C209.73 509.38 223.44 562.42 233.74 569.66L232.65 571.22Z" />
		<path id="Path 38" fill-rule="evenodd" class="shp24" d="M309.25 466.36C311.42 468.42 310.4 471.95 309.15 474.55C306.78 479.52 303.77 482.59 301.12 485.29C297.44 489.05 294.53 492.02 296 497.78C296.3 498.91 296.63 500.05 296.96 501.2C299.3 509.21 301.52 516.78 289.26 522.29C286.38 523.58 283.74 524.62 281.41 525.53C271.71 529.34 265.3 531.85 258.43 546.35C257.15 549.05 256.03 551.6 254.94 554.07C249.01 567.5 245.43 575.61 232.47 572.99C228.75 572.24 226.33 570.33 225.27 567.3C222.55 559.51 229.06 545.88 234.82 539.03C235.24 538.53 245.13 526.47 244.04 509.22C243.86 506.41 243.57 503.83 243.32 501.55C242.64 495.52 242.15 491.16 244.39 488.65C246.44 486.35 250.92 485.31 258.91 485.27C274.98 485.19 281.32 478.55 286.41 473.22C288.45 471.08 290.21 469.24 292.31 468.09C299.1 464.39 306.38 463.64 309.25 466.36ZM256.68 554.83C257.76 552.37 258.88 549.84 260.14 547.16C266.69 533.34 272.49 531.07 282.1 527.29C284.45 526.37 287.11 525.33 290.03 524.01C303.8 517.83 301.14 508.71 298.78 500.67C298.45 499.54 298.13 498.42 297.84 497.31C296.63 492.58 298.96 490.21 302.48 486.61C305.09 483.95 308.35 480.62 310.86 475.37C313.61 469.63 312.21 466.55 310.55 464.98C307.06 461.67 299.01 462.28 291.4 466.43C289.04 467.72 287.1 469.75 285.04 471.91C280.19 476.99 274.16 483.3 258.91 483.37C250.21 483.41 245.44 484.61 242.98 487.39C240.18 490.53 240.7 495.24 241.43 501.76C241.69 504.02 241.97 506.57 242.15 509.34C243.19 525.81 233.46 537.7 233.36 537.81C227.55 544.73 220.39 559.09 223.48 567.92C224.78 571.63 227.67 573.96 232.09 574.85C233.85 575.21 235.46 575.38 236.94 575.38C247.61 575.38 251.51 566.53 256.68 554.83Z" />
		<path id="Path 39" class="shp25" d="M232.3 586.32L230.4 586.22C230.5 584.44 232.89 542.52 249.72 530.25C268.18 516.79 274.01 502.33 276.78 492.62C280.05 481.17 296.68 478.12 297.38 477.99L297.72 479.86C297.55 479.89 281.54 482.84 278.6 493.14C275.75 503.12 269.77 517.98 250.84 531.78C234.72 543.53 232.32 585.89 232.3 586.32Z" />
		<path id="Path 40" class="shp26" d="M270.78 375.05C258.82 370.94 261.3 394 256.25 411.06C251.19 428.13 200.01 418.51 221.49 461.23C242.98 503.95 194.32 475.52 208.86 512.8C223.39 550.08 210.12 589.96 225.92 579.81C241.72 569.67 234.79 522.73 251.22 517.14C267.65 511.57 270.33 505.06 254.07 489.89C237.8 474.73 296.69 459.67 282.16 429.05C267.62 398.43 284.61 379.79 270.78 375.05Z" />
		<path id="Path 41" class="shp9" d="M233.25 578.03C231.74 571.64 218.89 515.48 230.88 508.69C241.45 502.7 241.19 479.43 239.54 457.45C238.08 438 263.07 428.9 264.13 428.52L264.77 430.31C264.52 430.4 240.08 439.3 241.43 457.31C243.12 479.88 243.31 503.83 231.82 510.34C222.71 515.5 231.1 560.63 235.09 577.59L233.25 578.03Z" />
		<path id="Path 42" class="shp27" d="M260.44 558.03L243.36 622.83L205.19 622.83L188.11 558.03L260.44 558.03Z" />
		<path id="Path 43" class="shp28" d="M260.44 558.03C260.44 558.03 222.84 565.09 222.84 622.83L205.19 622.83L188.11 558.03L260.44 558.03Z" />
		<path id="Path 44" class="shp29" d="M357.73 -20.12L357.73 -14.62L304.16 -14.62L304.16 38.95L298.66 38.95L298.66 -20.12L357.73 -20.12Z" />
		<path id="Path 45" class="shp30" d="M367.27 473.85L313.46 473.85L313.46 477.04L367.27 477.04L367.27 473.85Z" />
		<path id="Path 46" class="shp31" d="M320.67 630.63L325.38 630.63L325.38 485.35L320.67 485.35L320.67 630.63Z" />
		<path id="Path 47" class="shp32" d="M396.25 472.94L358.85 472.94L358.85 477.5L396.25 477.5L396.25 472.94Z" />
		<path id="Path 48" class="shp33" d="M384.63 477.04L370.47 477.04L370.47 434.01L384.63 434.01L384.63 477.04Z" />
		<path id="Path 49" class="shp34" d="M501.4 485.35L294.15 485.35L294.15 477.09L501.4 477.09L501.4 485.35Z" />
		<path id="Path 50" class="shp35" d="M254.37 427.09C254.37 427.09 252.11 458.88 258.32 462.69C262.21 465.07 277.72 473.11 277.26 474.62C276.8 476.12 268.5 488.03 268.5 488.03C268.5 488.03 238.71 468.4 237.74 462.22C236.8 456.18 239.21 415.68 243.31 413.81C246.37 412.41 247.99 413.57 251.86 416.44C257.29 420.47 254.37 427.09 254.37 427.09Z" />
		<path id="Path 51" class="shp36" d="M291.04 610.8C291.04 610.8 290.11 617.23 290 618.19C289.88 619.16 279.69 617.62 279.69 617.62L278.86 609.97C278.86 609.97 289.76 609.89 291.04 610.8Z" />
		<path id="Path 52" class="shp37" d="M290.1 617.37C290.1 617.37 293.33 621.25 296.46 622.94C299.58 624.63 304.49 625.3 306.34 627.05C307.67 628.31 311.19 633.74 298.22 633.63C285.25 633.53 278.99 634.4 277.6 632.32C276.21 630.23 279.61 616.94 279.61 616.94C279.61 616.94 282.69 618.04 290.1 617.37Z" />
		<path id="Path 53" class="shp36" d="M356.34 610.86C356.34 610.86 355.41 617.28 355.3 618.26C355.18 619.22 344.99 617.68 344.99 617.68L344.17 610.03C344.17 610.03 355.07 609.95 356.34 610.86Z" />
		<path id="Path 54" class="shp37" d="M355.41 617.44C355.41 617.44 358.64 621.31 361.76 623C364.88 624.69 376.38 626.08 378.22 627.83C379.56 629.09 381.77 634.17 363.52 633.7C350.55 633.36 344.29 634.46 342.9 632.38C341.52 630.3 344.92 617 344.92 617C344.92 617 347.81 618.18 355.41 617.44ZM258.16 499.69C258.16 499.69 295.22 505.96 303.59 507.27C311.96 508.59 357.34 519.88 363.01 523.32C367.53 526.06 360.64 591.84 359.04 616.94L341.16 616.94L339.86 541.65C318.42 542.19 303.11 536.64 287.49 539.01C271.87 541.38 258.85 544.75 248.92 531.44C248.92 531.44 248.56 502.6 258.16 499.69ZM294.69 617L277.27 615.92L275.57 541.65C266.34 541.89 263.17 541.3 255.7 540.39L241.63 507.7C253.96 510.17 293.45 520.13 298.72 523.32C303.23 526.06 296.3 591.9 294.69 617Z" />
		<path id="Path 55" class="shp38" d="M275.22 360.79C275.22 360.79 288.81 357.04 293.99 367.58C299.17 378.13 296.82 398.12 289.98 400C283.13 401.88 273.28 399.71 270.44 393.15C267.6 386.59 265.33 377.26 266.01 371.22C266.69 365.18 271.62 362.23 275.22 360.79ZM286.42 397.89C286.42 397.89 286.28 405.91 287.16 407.62C288.04 409.33 268.25 408.9 268.25 408.9C268.25 408.9 271.37 399.28 269.59 391.07C267.84 382.95 286.42 397.89 286.42 397.89Z" />
		<path id="Path 56" class="shp39" d="M268.53 388.03C268.53 388.03 269.59 390.18 274.71 389.84C279.84 389.49 286.6 383.31 288.77 382.75C290.95 382.2 291.08 380.96 291.08 380.96L292.23 383.01L294.46 383.35C294.46 383.35 292.94 377.15 296.24 374.97C299.54 372.79 294.76 355.22 278.05 359.46C278.05 359.46 265.29 361.79 265.12 368.91C264.95 376.04 266.05 384.26 268.53 388.03Z" />
		<path id="Path 57" class="shp30" d="M288.2 407.42C288.2 407.42 288.15 404.15 286.67 403.84C285.18 403.53 271.1 401.59 269.28 402.3L268.5 406.61C268.5 406.61 272.01 408.77 288.2 407.42Z" />
		<path id="Path 58" class="shp38" d="M292.28 379.5C291.9 376.82 288.85 373.75 287.11 377.92C285.36 382.09 288.29 388.17 290.24 387.84C292.2 387.51 292.79 383.13 292.28 379.5Z" />
		<path id="Path 59" class="shp39" d="M271.26 362.7C271.26 362.7 254.7 361.92 268.37 387.78L271.26 362.7Z" />
		<path id="Path 60" fill-rule="evenodd" class="shp40" d="M285.15 606.13L286.77 610.68L289.43 610.68L289.43 554.08L283.52 554.08L283.52 606.76L285.15 606.13ZM287.65 613.15L235.59 629.27L234.36 625.81L283.52 606.76L283.52 610.68L286.77 610.68L287.65 613.15Z" />
		<path id="Path 61" class="shp41" d="M303.92 554.41L269.03 554.41L269.03 551.07L303.92 551.07L303.92 554.41Z" />
		<path id="Path 62" class="shp40" d="M339.05 625.81L337.82 629.27L285.76 613.15L288.05 605.69L339.05 625.81ZM302.37 628.91L302.37 632.94L285.76 613.15L288.05 605.69L302.37 628.91Z" />
		<path id="Path 63" class="shp42" d="M343.92 630.63C343.92 633.32 341.74 635.5 339.05 635.5C336.36 635.5 334.19 633.32 334.19 630.63C334.19 627.94 336.36 625.77 339.05 625.77C341.74 625.77 343.92 627.94 343.92 630.63ZM302.78 630.63C302.78 633.32 300.61 635.5 297.92 635.5C295.23 635.5 293.05 633.32 293.05 630.63C293.05 627.94 295.23 625.77 297.92 625.77C300.61 625.77 302.78 627.94 302.78 630.63ZM239.22 630.63C239.22 633.32 237.04 635.5 234.36 635.5C231.67 635.5 229.49 633.32 229.49 630.63C229.49 627.94 231.67 625.77 234.36 625.77C237.04 625.77 239.22 627.94 239.22 630.63Z" />
		<path id="Path 64" class="shp30" d="M321.81 551.07L251.6 551.07C248.16 551.07 245.36 548.28 245.36 544.83L245.36 544.67C245.36 541.23 248.16 538.44 251.6 538.44L321.81 538.44C325.25 538.44 328.04 541.23 328.04 544.67L328.04 544.83C328.04 548.28 325.25 551.07 321.81 551.07Z" />
		<path id="Path 65" class="shp31" d="M474.89 630.63L470.17 630.63L470.17 485.35L474.89 485.35L474.89 630.63Z" />
		<path id="Path 66" class="shp43" d="M432.49 454.74L322.61 454.74C319.18 454.74 316.39 451.95 316.39 448.52L316.39 374.67C316.39 371.24 319.18 368.45 322.61 368.45L432.49 368.45C435.92 368.45 438.71 371.24 438.71 374.67L438.71 448.52C438.71 451.95 435.92 454.74 432.49 454.74Z" />
		<path id="Path 67" class="shp44" d="M433.92 441.22L321.19 441.22L321.19 373.12L433.92 373.12L433.92 441.22Z" />
		<path id="Path 68" class="shp45" d="M428.91 447.64C428.91 449.58 426.88 451.15 424.36 451.15C421.86 451.15 419.82 449.58 419.82 447.64C419.82 445.7 421.86 444.14 424.36 444.14C426.88 444.14 428.91 445.7 428.91 447.64Z" />
		<path id="Path 69" class="shp33" d="M402.87 477.2L402.87 475.66C402.87 475.66 400.71 466.12 385.45 466.12C370.18 466.12 370.48 477.2 370.48 477.2L402.87 477.2Z" />
		<path id="Path 70" class="shp38" d="M370.3 467.53C370.3 467.53 373.62 467.28 374.83 466.54C376.05 465.81 383.32 460.92 385.03 461.7C386.73 462.49 398.1 465.97 397.7 467.63C397.31 469.29 396.26 469.13 395.46 468.84C394.66 468.54 386.4 466.81 385.67 467.1C385.67 467.1 393.78 470.06 393.81 472.22C393.85 474.38 392.12 474.9 391.35 475.72C390.58 476.53 389.66 478.56 387.57 478.72C385.48 478.87 375.28 475.32 373.19 475.16C371.09 475 367.2 475.29 366.94 474.95C366.68 474.61 370.3 467.53 370.3 467.53Z" />
		<path id="Path 71" class="shp35" d="M309.91 411.95C299.33 410.09 288.2 407.42 288.2 407.42L268.5 406.61C268.5 406.61 250.42 410.59 243.31 413.81C242.63 414.12 242.63 429.94 240.77 434.09L246.68 446.54C246.68 446.54 250.09 471.21 250.79 482.18C251.12 487.21 249.88 530.85 249.88 530.85C249.88 530.85 251.65 531.72 265.09 533.21C278.53 534.69 312.12 532.67 312.33 531.08C312.54 529.5 305.83 471.96 305.53 468.98C305.07 464.41 306.85 443.28 306.85 443.28C309.38 446.68 315.84 462.04 322.57 469.35C326.53 473.66 346.14 476.29 349.83 476.41C357.87 476.68 372.55 478.28 372.98 477.5C373.32 477.03 374.25 464.48 373.34 464.17C372.53 463.9 345.28 462.33 338.3 458.63C335.75 457.27 328.11 440.63 328.11 440.63C328.11 440.63 315.74 414.57 309.91 411.95Z" />
		<path id="Path 72" class="shp30" d="M271.09 529.59L238.02 529.59C231.41 529.59 226.05 524.23 226.05 517.61L226.05 462.6C226.05 455.98 231.41 450.62 238.02 450.62L271.09 450.62C277.71 450.62 283.07 455.98 283.07 462.6L283.07 517.61C283.07 524.23 277.71 529.59 271.09 529.59ZM272.96 547.93C264.56 547.93 257.74 545.1 252.7 539.54C241.3 526.95 243.35 504.83 243.44 503.9C243.61 502.15 245.17 500.88 246.91 501.05C248.65 501.22 249.92 502.78 249.75 504.52C249.73 504.77 247.91 524.82 257.41 535.29C261.25 539.53 266.34 541.58 272.96 541.58C274.71 541.58 276.13 543 276.13 544.75C276.13 546.51 274.71 547.93 272.96 547.93Z" />
		<path id="Path 73" class="shp46" d="M361.31 382.14L330.07 382.14C329.58 382.14 329.18 381.74 329.18 381.25L329.18 379.43C329.18 378.94 329.58 378.54 330.07 378.54L361.31 378.54C361.8 378.54 362.2 378.94 362.2 379.43L362.2 381.25C362.2 381.74 361.8 382.14 361.31 382.14ZM361.31 389.86L330.07 389.86C329.58 389.86 329.18 389.45 329.18 388.96L329.18 387.15C329.18 386.66 329.58 386.26 330.07 386.26L361.31 386.26C361.8 386.26 362.2 386.66 362.2 387.15L362.2 388.96C362.2 389.45 361.8 389.86 361.31 389.86ZM359.2 435.79L332.18 435.79C330.52 435.79 329.18 434.45 329.18 432.8L329.18 398.11C329.18 396.45 330.52 395.11 332.18 395.11L359.2 395.11C360.86 395.11 362.2 396.45 362.2 398.11L362.2 432.8C362.2 434.45 360.86 435.79 359.2 435.79ZM422.93 435.79L373.61 435.79C370.99 435.79 368.87 433.67 368.87 431.04L368.87 383.29C368.87 380.67 370.99 378.54 373.61 378.54L422.93 378.54C425.55 378.54 427.67 380.67 427.67 383.29L427.67 431.04C427.67 433.67 425.55 435.79 422.93 435.79Z" />
		<path id="Path 74" class="shp47" d="M357.18 182.55L356.12 182.55L356.12 71.83L357.18 71.83L357.18 182.55ZM432.21 182.55L431.15 182.55L431.15 71.83L432.21 71.83L432.21 182.55ZM507.24 182.55L506.19 182.55L506.19 71.83L507.24 71.83L507.24 182.55ZM582.27 182.55L581.22 182.55L581.22 71.83L582.27 71.83L582.27 182.55ZM657.3 182.55L656.25 182.55L656.25 71.83L657.3 71.83L657.3 182.55Z" />
		<path id="Path 75" class="shp48" d="M368.59 192.95L356.65 192.95L356.65 189.1L368.59 189.1L368.59 192.95Z" />
		<path id="Path 76" class="shp49" d="M374.62 61.08L356.65 61.08L356.65 58.19L374.62 58.19L374.62 61.08ZM382.14 66.41L356.65 66.41L356.65 63.53L382.14 63.53L382.14 66.41ZM451.97 61.08L430.87 61.08L430.87 58.19L451.97 58.19L451.97 61.08ZM444.36 66.41L430.87 66.41L430.87 63.53L444.36 63.53L444.36 66.41ZM520.32 61.08L507.24 61.08L507.24 58.19L520.32 58.19L520.32 61.08ZM522.48 66.41L507.24 66.41L507.24 63.53L522.48 63.53L522.48 66.41ZM601.32 61.08L582.27 61.08L582.27 58.19L601.32 58.19L601.32 61.08ZM597.51 66.41L582.27 66.41L582.27 63.53L597.51 63.53L597.51 66.41ZM668.15 61.08L656.78 61.08L656.78 58.19L668.15 58.19L668.15 61.08ZM665.88 66.41L656.78 66.41L656.78 63.53L665.88 63.53L665.88 66.41Z" />
		<path id="Path 77" class="shp48" d="M443.62 192.95L431.68 192.95L431.68 189.1L443.62 189.1L443.62 192.95ZM519.18 192.95L507.24 192.95L507.24 189.1L519.18 189.1L519.18 192.95ZM594.21 192.95L582.27 192.95L582.27 189.1L594.21 189.1L594.21 192.95ZM669.24 192.95L657.3 192.95L657.3 189.1L669.24 189.1L669.24 192.95Z" />
		<path id="Path 78" class="shp50" d="M630.77 149.65C607.37 149.65 587.03 139.54 565.82 128.99C539.64 115.97 512.56 102.51 476.49 106.19C453.45 108.54 439 117.93 426.24 126.2C414.69 133.7 403.77 140.29 388.98 140.85C365.08 141.76 356.79 131.57 356.65 130.94L356.65 124.4C356.68 124.51 361.9 135.96 388.96 135.82C402.28 135.75 412.11 129.37 423.5 121.98C436.74 113.4 451.74 103.67 475.98 101.19C513.5 97.35 541.24 111.15 568.06 124.48C596.13 138.44 622.91 151.53 656.78 140.18L656.78 145.55C647.12 148.79 639.4 149.65 630.77 149.65Z" />
		<path id="Path 79" class="shp51" d="M490.3 148.4C473.03 148.4 459.32 136.78 445.91 125.41C435.74 116.79 425.19 107.97 413.01 103.62C375.84 90.35 356.82 114.58 356.65 114.8L356.65 107.43C356.85 107.17 360.24 102.77 370.06 98.56C378.99 94.73 393.98 91.68 414.66 98.87C427.76 103.43 438.64 112.65 449.16 121.57C470.51 139.67 488.94 155.3 520.95 130.82C545.2 112.28 568.06 94.61 590.54 88.16C612.54 81.84 635.47 86.46 656.93 107.93L656.78 114.62C611.18 68.83 572.36 97.84 524.01 134.81C511.2 144.61 500.17 148.4 490.3 148.4Z" />
		<path id="Path 80" fill-rule="evenodd" class="shp52" d="M840.28 327.64L728.13 327.64C719.61 327.64 712.68 320.71 712.68 312.19L712.68 212.93C712.68 204.41 719.61 197.47 728.13 197.47L840.28 197.47C848.8 197.47 855.73 204.41 855.73 212.93L855.73 312.19C855.73 320.71 848.8 327.64 840.28 327.64ZM728.13 199.36C720.65 199.36 714.57 205.44 714.57 212.93L714.57 312.19C714.57 319.67 720.65 325.76 728.13 325.76L840.28 325.76C847.76 325.76 853.85 319.67 853.85 312.19L853.85 212.93C853.85 205.44 847.76 199.36 840.28 199.36L728.13 199.36Z" />
		<path id="Path 81" class="shp53" d="M906.72 606.85C906.72 606.85 907.73 613.97 907.86 615.03C907.99 616.11 919.16 614.4 919.16 614.4L920.07 605.93C920.07 605.93 908.12 605.84 906.72 606.85Z" />
		<path id="Path 82" class="shp54" d="M907.74 614.13C907.74 614.13 904.2 618.42 900.78 620.29C897.35 622.16 891.97 622.9 889.95 624.84C888.49 626.23 884.62 632.25 898.84 632.13C913.07 632 919.93 632.98 921.45 630.67C922.97 628.36 919.24 613.65 919.24 613.65C919.24 613.65 915.88 614.87 907.74 614.13Z" />
		<path id="Path 83" class="shp53" d="M826.64 606.85C826.64 606.85 827.66 613.97 827.79 615.03C827.92 616.11 839.09 614.4 839.09 614.4L840 605.93C840 605.93 828.04 605.84 826.64 606.85Z" />
		<path id="Path 84" class="shp54" d="M827.67 614.13C827.67 614.13 824.13 618.42 820.7 620.29C817.28 622.16 804.67 623.7 802.65 625.63C801.19 627.03 798.76 632.65 818.77 632.13C832.99 631.75 839.85 632.98 841.38 630.67C842.9 628.36 839.17 613.65 839.17 613.65C839.17 613.65 836 614.95 827.67 614.13Z" />
		<path id="Path 85" class="shp55" d="M902.75 423.03C902.75 423.03 908.7 440.7 907.92 455.93C907.13 471.15 910.99 487.81 912.56 503.72C914.32 521.45 921.52 563.43 921.78 572.91C922.04 582.4 920.66 612.68 920.66 612.68L906.26 613.01C906.26 613.01 894.16 539.63 891.03 532.14C887.9 524.65 872.36 471.27 871.83 465.28C871.31 459.29 902.75 423.03 902.75 423.03Z" />
		<path id="Path 86" class="shp54" d="M842.19 426.18C842.19 426.18 834.27 467.91 833.23 477.23C832.19 486.54 831.49 522.32 830.97 528.15C830.44 533.97 827.48 604.36 824.7 613.01L843.12 613.01C843.12 613.01 857.25 561.84 857.25 537.63C857.25 513.42 868.17 485 875.23 469.02C882.27 453.05 898.41 452.67 902.75 423.03C902.75 423.03 848.05 416.78 842.19 426.18Z" />
		<path id="Path 87" class="shp38" d="M879.62 283.56C879.62 283.56 865.1 278.14 858.4 289.19C851.71 300.24 852.36 322.37 859.68 325.09C866.99 327.81 877.98 326.38 881.73 319.47C885.48 312.55 888.86 302.56 888.7 295.88C888.53 289.19 883.43 285.49 879.62 283.56ZM862.11 324.41C862.11 324.41 862.7 328.21 861.73 330.09C860.76 331.96 879.99 332.01 879.99 332.01C879.99 332.01 881.55 321.82 884.51 313.2C887.47 304.58 862.11 324.41 862.11 324.41Z" />
		<path id="Path 88" class="shp56" d="M884.51 313.2C884.51 313.2 883.18 315.39 877.76 314.54C872.35 313.69 865.74 306.48 863.48 305.69C861.21 304.9 861.19 303.57 861.19 303.57L859.77 305.64L857.37 305.79C857.37 305.79 859.56 299.34 856.26 296.72C852.95 294.09 859.69 275.84 877.07 281.92C877.07 281.92 890.41 285.6 889.93 293.18C889.44 300.78 887.49 309.42 884.51 313.2Z" />
		<path id="Path 89" class="shp30" d="M860.59 329.86C860.59 329.86 860.65 326.28 862.27 325.94C863.89 325.59 880.19 324.03 882.18 324.81L882.18 328.98C882.18 328.98 878.34 331.35 860.59 329.86Z" />
		<path id="Path 90" class="shp38" d="M861.55 300.81C861.86 299.54 865.09 295.9 866.33 299.79C867.57 303.69 864.46 308.93 862.72 308.48C860.99 308.03 860.78 304.04 861.55 300.81Z" />
		<path id="Path 91" class="shp57" d="M860.59 329.86C860.59 329.86 851.65 333.07 841.3 337.47C841.3 337.47 829.4 341.91 828.11 355.06C827.43 362.04 820 399.07 818.61 402.21C817.21 405.34 800.74 455.68 800.16 456.72C799.58 457.77 813.6 463.59 814.53 463.13C815.46 462.66 830.48 417.21 831.99 413.85C831.99 413.85 840.64 386.6 840.87 382.53C840.87 382.53 841.12 394.11 841.58 397.36C842.05 400.61 833.89 463.71 834.13 465.45C834.36 467.2 871.19 469.41 885.93 467.78C900.67 466.16 912.56 462.77 912.56 462.77C912.56 462.77 900.96 412.97 901.32 407.45C902.1 395.42 906.11 372.76 906.11 372.76L918.13 395.42L902.75 435L906.27 447.02C906.27 447.02 934.86 403.82 935.79 399.88C936.72 395.93 934.39 390.9 932.88 387.66C931.37 384.41 921.46 359.67 919.14 356.19C916.82 352.71 912.9 338.77 903.41 334.88C895.49 331.64 882.18 328.98 882.18 328.98L860.59 329.86Z" />
		<path id="Path 92" class="shp58" d="M840.93 479.54L773.58 462.27L785.63 415.29L852.98 432.56L840.93 479.54Z" />
		<path id="Path 93" class="shp59" d="M794.29 467C794.29 467 792.36 470.11 791.66 471C790.96 471.88 793.39 472.44 794.43 471.54C795.48 470.65 794.29 467 794.29 467Z" />
		<path id="Path 94" class="shp60" d="M808.32 477.62C808.32 477.62 809.45 476.44 809.7 475.67C809.7 475.67 810.04 474.26 810.34 473.26C810.44 472.95 810.53 472.68 810.61 472.5C810.92 471.79 811.85 470.34 812.14 468.41C812.44 466.49 813.28 457.88 813.28 457.88L808.06 456.56L803.87 455.68C803.87 455.68 794.82 464.71 794.33 466.47C794.29 466.64 794.25 466.81 794.22 466.97C793.96 468.5 794.41 469.75 794.36 470.57C794.34 470.87 794.38 473.86 795.08 474.42C796.05 475.2 797.04 475.35 797.84 475.09C797.84 475.09 799.81 476.53 801.45 476.44C801.45 476.44 803.21 477.83 805.22 477.15C805.22 477.15 807.17 478.35 808.32 477.62Z" />
		<path id="Path 95" class="shp57" d="M828.68 423.13C828.68 423.13 816.73 459.33 814.53 463.13C814.53 463.13 805.77 461.28 800.16 456.72L813.28 417.66L828.68 423.13Z" />
		<path id="Path 96" class="shp38" d="M654.56 422.24C654.56 422.24 651.01 421.84 649.33 421.93C647.66 422.02 640.23 426.19 637.73 426.07C635.23 425.95 618.52 420.49 617.74 420.05C616.97 419.61 617.95 418.42 617.95 418.42L654.93 414.79L654.56 422.24Z" />
		<path id="Path 97" class="shp61" d="M684.28 362.64L688.1 401.59C688.1 401.59 689.76 406.4 678.86 408.17C667.72 409.98 650.32 413.76 650.32 413.76C650.32 413.76 650.61 426.76 652.08 426.83C656.33 427.06 687.92 421.71 700.44 419.06C710.37 416.97 704.15 363.86 704.15 363.86L684.28 362.64Z" />
		<path id="Path 98" class="shp38" d="M654.02 409.16C654.02 409.16 650.57 410.08 648.9 410.24C647.23 410.4 639.27 407.38 636.81 407.87C634.36 408.36 618.64 416.24 617.94 416.79C617.24 417.33 618.38 418.37 618.38 418.37L655.49 416.47L654.02 409.16Z" />
		<path id="Path 99" class="shp37" d="M695.03 615.1C695.03 615.1 687.33 619.77 683.85 621.51C680.36 623.26 666.73 623.91 665.4 625.21C664.07 626.5 664.61 630.57 666.88 630.96C669.14 631.35 685.73 632.65 691.24 631.29C696.75 629.93 707.12 631.98 709.4 631.18C711.68 630.37 710.06 618.04 709.14 615.28C708.22 612.53 695.03 615.1 695.03 615.1Z" />
		<path id="Path 100" class="shp62" d="M694.32 610.05L695.03 615.1C695.03 615.1 705.41 616.91 708.53 615.27L707.69 610.04L694.32 610.05Z" />
		<path id="Path 101" class="shp37" d="M673.84 433.45C673.55 436.94 673.32 444.55 673.15 452.54C673.11 454.32 673.07 456.12 673.04 457.89C672.84 468.66 672.75 478.63 672.75 478.63C673.26 492.16 675.4 521.47 679.43 528.05C684.87 536.93 691.18 610.85 691.18 610.85L711.17 613C711.17 613 712.4 563.58 709.42 550.67C706.08 536.26 699.68 516.61 703.34 503.51C705.64 495.28 710.42 468.8 710.42 468.8C710.42 468.8 715.54 439.02 710.23 416.16C708.9 410.45 673.84 433.45 673.84 433.45ZM660.71 615.1C660.71 615.1 653.01 619.77 649.53 621.51C646.04 623.26 632.41 623.91 631.08 625.21C629.75 626.5 630.29 630.57 632.55 630.96C634.82 631.35 651.4 632.65 656.92 631.29C662.43 629.93 672.8 631.98 675.08 631.18C677.36 630.37 675.73 618.04 674.81 615.28C673.9 612.53 660.71 615.1 660.71 615.1Z" />
		<path id="Path 102" class="shp62" d="M660 610.05L660.71 615.1C660.71 615.1 671.09 616.91 674.21 615.27L673.37 610.04L660 610.05Z" />
		<path id="Path 103" class="shp37" d="M655.7 612.35L676.19 612.35C676.19 612.35 683.07 572.73 683.64 555.27C683.7 553.37 683.68 551.74 683.58 550.45C683.28 546.74 682.84 542.69 682.44 538.49L682.43 538.4C681.22 525.9 680.33 512.18 684.47 502.89C687.95 495.09 696.55 469.59 696.55 469.59C696.55 469.59 705.97 440.88 704.06 417.49C703.58 411.65 667.18 426.34 667.18 426.34C666.39 429.74 663.95 440.46 663.09 448.41C658.16 493.83 660 523.42 660 523.42C662.82 533.45 655.7 612.35 655.7 612.35Z" />
		<path id="Path 104" class="shp63" d="M670.36 329.5C670.36 329.5 663.25 346.4 661.78 355.45C660.32 364.5 666.32 389.27 666.59 394.39C667.43 410.28 667.82 427.85 667.82 427.85L702.5 443.31C702.5 443.31 706.19 429.18 708.66 411.92C711.13 394.65 709.29 379.72 707.75 369.79C702.92 338.64 683.43 323.56 683.43 323.56L670.36 329.5Z" />
		<path id="Path 105" class="shp38" d="M644.05 299.09C644.05 299.09 641.65 308.4 644.16 309.13C646.23 309.74 644.28 318.77 644.09 320.21C643.9 321.66 647.93 321.68 648.95 322.32C649.97 322.97 654.93 332.81 658.14 332.36C661.35 331.9 674.25 323.52 677.1 318.57C679.96 313.63 678.67 294.81 674.23 287.84C669.79 280.86 648.34 282.82 644.05 299.09ZM663.62 322.01C663.62 322.01 663.87 322.93 664.23 324.34C664.38 324.93 664.55 325.61 664.73 326.34C664.87 326.9 665.01 327.5 665.15 328.11C665.21 328.33 665.26 328.55 665.31 328.78C665.55 329.8 665.78 330.88 666 331.94C666.55 334.69 666.96 337.33 666.89 338.85C666.7 343 681.53 323.36 681.53 323.36C681.53 323.36 678.07 310.38 676.56 295.42C675.05 280.47 663.62 322.01 663.62 322.01Z" />
		<path id="Path 106" class="shp37" d="M643.61 301.09C643.61 301.09 636.9 293.33 643.49 284.73C650.09 276.12 668.08 283.94 669.89 283.96C671.71 283.98 681.37 282.25 680.86 300.47C680.4 316.68 679.6 315.98 679.6 315.98C679.6 315.98 674.6 309.18 672.51 308.33C669.24 307 663.28 308.98 663.28 308.98C663.28 308.98 664.28 300.57 659.48 300.6C654.69 300.62 647.77 298.26 643.61 301.09Z" />
		<path id="Path 107" class="shp38" d="M667.02 303.38C667.16 302.23 667.33 297.37 671.88 299.08C676.43 300.79 672.22 310.89 671.56 311.17C670.91 311.44 665.84 313.09 667.02 303.38Z" />
		<path id="Path 108" class="shp64" d="M665.6 433.49C665.6 433.49 667.19 426 667.5 424.88L714.3 432.67L713.83 438.72C713.83 438.72 680.1 436.7 665.6 433.49Z" />
		<path id="Path 109" fill-rule="evenodd" class="shp65" d="M714.44 396.05C714.44 396.05 713.73 405.33 715.58 419.32C715.69 411.1 715.59 402.4 715.12 393.71C714.98 390.94 714.79 388.17 714.56 385.43L714.56 385.42C712.16 356.39 700.8 328.31 683.43 323.56C683.02 323.95 663 348.19 666.23 367.08C666.84 370.67 667.37 374.3 667.82 377.93C668.74 385.17 669.36 392.43 669.76 399.51C669.8 400.25 669.84 400.99 669.88 401.72C669.94 402.91 669.99 404.09 670.04 405.27C670.11 406.84 670.16 408.39 670.21 409.94C671.15 442.14 683.06 467.51 683.06 467.51C683.06 467.51 695.32 468.35 704.46 467.58C700.42 467.67 697.51 467.65 697.51 467.65L714.44 396.05ZM728.49 463.6C729.91 466.6 714.02 467.38 704.46 467.58C708.01 467.29 711.09 466.75 712.8 465.82C712.8 465.82 715.24 445 715.58 419.32C717.2 431.52 720.78 447.29 728.49 463.6Z" />
		<path id="Path 110" class="shp66" d="M589.77 424.43L651.52 421.94L651.3 416.28L589.55 418.77L589.77 424.43ZM568.87 366.27L589.76 424.43L595.08 422.52L574.2 364.35L568.87 366.27Z" />
		<path id="Path 111" class="shp67" d="M674.21 519.94C675.95 531.21 683.47 554.75 683.64 555.27C683.7 553.37 683.68 551.74 683.58 550.45C683.28 546.74 682.84 542.69 682.44 538.49L682.43 538.4C682.03 534.75 679.42 528.01 677.68 523.44C675.92 518.83 674.21 500.53 674.21 500.53C674.21 500.53 672.45 508.55 674.21 519.94Z" />
		<path id="Path 112" class="shp68" d="M665.31 328.78C665.55 329.8 665.78 330.88 666 331.94C670.35 328.95 675.36 320.99 675.67 320.49C673.9 323.07 665.44 328.68 665.31 328.78Z" />
		<path id="Path 113" class="shp69" d="M669.87 397.68C669.92 398.4 669.96 399.12 669.99 399.83C670.05 401 670.11 402.15 670.16 403.3C675.47 402.22 685.55 399.51 688.59 394.13C692.72 386.81 682.41 369.68 682.19 369.31C682.28 369.77 686.6 390.85 682.18 392.95C679.32 394.31 673.38 396.17 669.87 397.68Z" />
		<path id="Path 114" class="shp70" d="M666.31 343.89C666.31 343.89 662.7 361.91 665.87 383.43C668.53 401.44 669.56 414.37 669.56 414.37L668.23 419.45L665.8 415.55C665.8 415.55 661.62 392.48 660.84 382.89C660.05 373.21 659.23 360.22 664.82 343.79L666.31 343.89ZM666.54 343.91C666.54 343.91 666.1 344.48 665.38 344.7C664.66 344.92 663.44 343.91 666.45 338.39L666.54 343.91Z" />
		<path id="Path 115" class="shp71" d="M681.01 321.31C681.01 321.31 671.88 332.93 665.87 336.09L666.11 345.88L683.43 323.56L681.01 321.31Z" />
		<path id="Path 116" class="shp65" d="M700.86 353.22C700.15 348.77 694.97 329.87 684.28 332.65C673.6 335.43 676.61 348.29 678.94 357.98C681.38 368.12 690.11 392.61 688.59 394.13C687.07 395.66 674.7 401.27 672.01 402.19C669.31 403.12 652.18 408.56 650.86 409.13C649.57 409.68 657.49 423.7 657.49 423.7C657.49 423.7 700.19 409.14 707.43 404.42C714.68 399.72 700.86 353.22 700.86 353.22Z" />
	</g>
</svg>