<?xml version="1.0" encoding="UTF-8" standalone="no"?>
<svg
   xmlns:dc="http://purl.org/dc/elements/1.1/"
   xmlns:cc="http://creativecommons.org/ns#"
   xmlns:rdf="http://www.w3.org/1999/02/22-rdf-syntax-ns#"
   xmlns:svg="http://www.w3.org/2000/svg"
   xmlns="http://www.w3.org/2000/svg"
   viewBox="0 0 1000 666.66669"
   height="666.66669"
   width="1000"
   xml:space="preserve"
   id="svg2"
   version="1.1"><metadata
     id="metadata8"><rdf:RDF><cc:Work
         rdf:about=""><dc:format>image/svg+xml</dc:format><dc:type
           rdf:resource="http://purl.org/dc/dcmitype/StillImage" /></cc:Work></rdf:RDF></metadata><defs
     id="defs6"><clipPath
       id="clipPath94"
       clipPathUnits="userSpaceOnUse"><path
         id="path92"
         d="m 4179.32,969.969 c -32.16,0 -52.74,1.429 -52.74,1.429 h -768.91 v 0 c -318.18,0 -445.71,7.891 -476.15,107.242 -1.77,5.32 -3.06,10.95 -4.18,16.91 -3.93,21 -3.58,50.63 0.8,86.58 15.08,123.59 77.91,322.05 179.23,502.84 5.48,9.77 11.06,19.47 16.76,29.13 l 64.92,-57.55 c 2.41,-2.13 5.15,-3.06 7.81,-3.06 7.47,0 14.31,7.33 11.35,15.88 l -32.79,94.72 h 101.51 c 21.94,0 39.73,17.79 39.73,39.73 v 155.05 c 4.95,4.48 9.89,8.83 14.84,13.07 62.13,53.28 123.37,87.67 180.36,109.74 89.37,34.62 168.27,39.12 223.67,39.12 97.57,0 176.33,-7.24 243.15,-22.86 55.3,-12.96 102.47,-31.56 145.4,-56.37 v 0 c 93.36,-53.95 166.63,-137.26 259.7,-255.63 v -221.68 c 0,-21.13 17.13,-38.24 38.24,-38.24 h 122.23 c 30.99,-68.39 53,-135.56 65.09,-197.75 4.41,-22.7 7.51,-44.73 9.23,-65.91 3.6,-44.25 1.22,-84.8 -7.55,-119.95 v -0.16 c -4.66,-19 -11.26,-36.39 -19.8,-52.02 -49.61,-90.699 -204.68,-114.039 -310.46,-119.05 -19.04,-0.899 -36.49,-1.211 -51.44,-1.211 m -837.74,761.691 c -23.19,-184.76 -49.42,-366.81 -132.86,-498.03 218.71,-163.07 410.49,-216.84 568.41,-216.84 306.2,0 484.98,202.27 484.98,202.27 -83.3,164.77 -107.39,337 -104.67,512.6 l -115.4,-375.73 h -628 l -72.46,375.73" /></clipPath><linearGradient
       id="linearGradient100"
       spreadMethod="pad"
       gradientTransform="matrix(0,968.845,968.845,0,3722.4,1034.69)"
       gradientUnits="userSpaceOnUse"
       y2="0"
       x2="1"
       y1="0"
       x1="0"><stop
         id="stop96"
         offset="0"
         style="stop-opacity:1;stop-color:#1f3a65" /><stop
         id="stop98"
         offset="1"
         style="stop-opacity:1;stop-color:#294a7a" /></linearGradient><clipPath
       id="clipPath110"
       clipPathUnits="userSpaceOnUse"><path
         id="path108"
         d="m 3777.13,1016.79 c -157.92,0 -349.7,53.77 -568.41,216.84 83.44,131.22 109.67,313.27 132.86,498.03 l 72.46,-375.73 h 628 l 115.4,375.73 c -2.72,-175.6 21.37,-347.83 104.67,-512.6 0,0 -178.78,-202.27 -484.98,-202.27" /></clipPath><linearGradient
       id="linearGradient116"
       spreadMethod="pad"
       gradientTransform="matrix(0,968.845,968.845,0,3722.4,1034.69)"
       gradientUnits="userSpaceOnUse"
       y2="0"
       x2="1"
       y1="0"
       x1="0"><stop
         id="stop112"
         offset="0"
         style="stop-opacity:1;stop-color:#193057" /><stop
         id="stop114"
         offset="1"
         style="stop-opacity:1;stop-color:#213d69" /></linearGradient><clipPath
       id="clipPath126"
       clipPathUnits="userSpaceOnUse"><path
         id="path124"
         d="m 3399.38,971.398 h -41.7 c -318.19,0 -445.72,7.891 -476.16,107.242 -16.58,78.1 4.51,160.23 99.68,184.7 149.11,38.32 408.68,-112.72 408.68,-112.72 z" /></clipPath><linearGradient
       id="linearGradient132"
       spreadMethod="pad"
       gradientTransform="matrix(0,260.45,260.45,0,3137.88,959.54)"
       gradientUnits="userSpaceOnUse"
       y2="0"
       x2="1"
       y1="0"
       x1="0"><stop
         id="stop128"
         offset="0"
         style="stop-opacity:1;stop-color:#1f3a65" /><stop
         id="stop130"
         offset="1"
         style="stop-opacity:1;stop-color:#294a7a" /></linearGradient><clipPath
       id="clipPath142"
       clipPathUnits="userSpaceOnUse"><path
         id="path140"
         d="m 4561.03,1142.41 v -0.16 c -4.67,-19 -11.27,-36.39 -19.81,-52.02 -77.77,-142.171 -414.64,-118.832 -414.64,-118.832 h -228.17 l 28.98,193.232 c 0,0 404.49,187.27 549.42,128.83 70.86,-28.51 92.59,-87.77 84.22,-151.05 z" /></clipPath><linearGradient
       id="linearGradient148"
       spreadMethod="pad"
       gradientTransform="matrix(0,260.45,260.45,0,4230.56,959.54)"
       gradientUnits="userSpaceOnUse"
       y2="0"
       x2="1"
       y1="0"
       x1="0"><stop
         id="stop144"
         offset="0"
         style="stop-opacity:1;stop-color:#1f3a65" /><stop
         id="stop146"
         offset="1"
         style="stop-opacity:1;stop-color:#294a7a" /></linearGradient><clipPath
       id="clipPath162"
       clipPathUnits="userSpaceOnUse"><path
         id="path160"
         d="m 4183.58,1525.33 -2.74,-16.75 v -0.15 l -76.32,-472.62 h -750.87 l -75.52,489.84 c -3.7,24 14.98,45.74 39.13,45.74 h 827.19 c 24.48,0 43,-21.91 39.13,-46.06 z" /></clipPath><linearGradient
       id="linearGradient168"
       spreadMethod="pad"
       gradientTransform="matrix(-338.155,536.754,536.754,338.155,3915.08,1057.42)"
       gradientUnits="userSpaceOnUse"
       y2="0"
       x2="1"
       y1="0"
       x1="0"><stop
         id="stop164"
         offset="0"
         style="stop-opacity:1;stop-color:#3855e1" /><stop
         id="stop166"
         offset="1"
         style="stop-opacity:1;stop-color:#5c7ef7" /></linearGradient><clipPath
       id="clipPath190"
       clipPathUnits="userSpaceOnUse"><path
         id="path188"
         d="m 3916.48,2447.02 c 0,0 -14.55,-82.67 -32.66,-135.01 0,0 -33.15,6.68 -43.88,93.91 0,0 -71.65,-14.05 -116.6,53.71 0,0 -10.73,-67.09 -79.84,-19.45 -46.08,-37.63 -100.56,-41.59 -162.37,-16.11 0,0 10.4,-87.96 -19.12,-130.22 0,0 -10.74,34.74 -45.02,133.4 0,0 -14.72,-0.52 -24.12,-13.94 0,0 -74.11,144.95 -39.22,214.73 34.89,69.78 81.86,42.94 81.86,42.94 0,0 -17.45,95.27 85.88,130.16 103.32,34.89 103.32,81.86 119.43,72.46 16.1,-9.39 22.81,-44.28 22.81,-44.28 0,0 178.47,18.79 226.78,-173.1 0,0 128.9,-4.12 52.4,-220.17 0,0 -5.03,8.96 -26.33,10.97 z" /></clipPath><linearGradient
       id="linearGradient196"
       spreadMethod="pad"
       gradientTransform="matrix(-10.8089,421.549,421.549,10.8089,3660.75,2370.25)"
       gradientUnits="userSpaceOnUse"
       y2="0"
       x2="1"
       y1="0"
       x1="0"><stop
         id="stop192"
         offset="0"
         style="stop-opacity:1;stop-color:#3f2323" /><stop
         id="stop194"
         offset="1"
         style="stop-opacity:1;stop-color:#5e3434" /></linearGradient><clipPath
       id="clipPath222"
       clipPathUnits="userSpaceOnUse"><path
         id="path220"
         d="m 3146.86,1653.49 c -2.66,0 -5.4,0.93 -7.81,3.06 l -64.92,57.55 c 26.79,45.38 56.04,89.29 87.58,130.23 34.78,45.09 69.97,82.88 104.95,114.54 v -155.05 c 0,-21.94 -17.79,-39.73 -39.73,-39.73 h -101.51 l 32.79,-94.72 c 2.96,-8.55 -3.88,-15.88 -11.35,-15.88" /></clipPath><linearGradient
       id="linearGradient228"
       spreadMethod="pad"
       gradientTransform="matrix(0,968.845,968.845,0,3722.4,1034.69)"
       gradientUnits="userSpaceOnUse"
       y2="0"
       x2="1"
       y1="0"
       x1="0"><stop
         id="stop224"
         offset="0"
         style="stop-opacity:1;stop-color:#183161" /><stop
         id="stop226"
         offset="1"
         style="stop-opacity:1;stop-color:#1f3f75" /></linearGradient><clipPath
       id="clipPath262"
       clipPathUnits="userSpaceOnUse"><path
         id="path260"
         d="m 5215.12,1229.63 h -209.34 v -181.15 c 0,-42.25 34.25,-76.5 76.5,-76.5 h 56.35 c 42.25,0 76.49,34.25 76.49,76.5 z" /></clipPath><linearGradient
       id="linearGradient268"
       spreadMethod="pad"
       gradientTransform="matrix(209.334,0,0,-209.334,5005.78,1100.81)"
       gradientUnits="userSpaceOnUse"
       y2="0"
       x2="1"
       y1="0"
       x1="0"><stop
         id="stop264"
         offset="0"
         style="stop-opacity:1;stop-color:#1f3a65" /><stop
         id="stop266"
         offset="1"
         style="stop-opacity:1;stop-color:#294a7a" /></linearGradient><clipPath
       id="clipPath278"
       clipPathUnits="userSpaceOnUse"><path
         id="path276"
         d="m 5072.21,1229.63 v 55.86 c 0,9.17 7.43,16.6 16.61,16.6 h 21.13 c 9.17,0 16.6,7.43 16.6,16.6 v 21.14 c 0,9.17 -7.43,16.61 -16.6,16.61 h -67.94 c -46.69,0 -84.53,37.85 -84.53,84.54 0,46.69 37.84,84.54 84.53,84.54 h 90.08 c 9.17,0 16.6,7.43 16.6,16.6 v 7.55 c 0,48.36 39.21,87.56 87.56,87.56 48.36,0 87.56,-39.2 87.56,-87.56 0,-52.25 -42.35,-94.6 -94.6,-94.6 H 5070.7 c -9.18,0 -16.61,-7.44 -16.61,-16.61 0,-9.17 7.43,-16.6 16.61,-16.6 h 86.55 c 31.96,0 57.87,-25.91 57.87,-57.88 v -36.23 c 0,-31.96 -25.91,-57.87 -57.87,-57.87 -9.17,0 -16.61,-7.43 -16.61,-16.6 v -23.65 z" /></clipPath><linearGradient
       id="linearGradient284"
       spreadMethod="pad"
       gradientTransform="matrix(-265.693,-527.361,-527.361,265.693,5304.74,1819.82)"
       gradientUnits="userSpaceOnUse"
       y2="0"
       x2="1"
       y1="0"
       x1="0"><stop
         id="stop280"
         offset="0"
         style="stop-opacity:1;stop-color:#e2e8f7" /><stop
         id="stop282"
         offset="1"
         style="stop-opacity:1;stop-color:#ffffff" /></linearGradient><clipPath
       id="clipPath300"
       clipPathUnits="userSpaceOnUse"><path
         id="path298"
         d="m 4494.25,1526.02 h -122.23 c -21.11,0 -38.24,17.11 -38.24,38.24 v 221.68 c 2.95,-3.75 5.91,-7.52 8.9,-11.34 6.09,-7.78 12.07,-15.61 17.94,-23.48 V 1597.8 c 0,-25.52 20.78,-46.3 46.29,-46.3 h 75.4 c 4.12,-8.5 8.1,-17.01 11.94,-25.48" /></clipPath><linearGradient
       id="linearGradient306"
       spreadMethod="pad"
       gradientTransform="matrix(0,968.845,968.845,0,3722.4,1034.69)"
       gradientUnits="userSpaceOnUse"
       y2="0"
       x2="1"
       y1="0"
       x1="0"><stop
         id="stop302"
         offset="0"
         style="stop-opacity:1;stop-color:#183161" /><stop
         id="stop304"
         offset="1"
         style="stop-opacity:1;stop-color:#1f3f75" /></linearGradient><clipPath
       id="clipPath328"
       clipPathUnits="userSpaceOnUse"><path
         id="path326"
         d="m 4474.37,1567.61 h -67.46 c -16.65,0 -30.18,13.54 -30.18,30.19 v 131.25 c 0.36,-0.51 0.73,-1.03 1.09,-1.54 17.76,-24.98 34.4,-50.3 49.89,-75.79 v -49.65 h 28.6 c 6.26,-11.49 12.28,-22.98 18.06,-34.46 m -27,50.56 h -3.56 v 6.26 c 1.2,-2.09 2.38,-4.16 3.56,-6.26" /></clipPath><linearGradient
       id="linearGradient334"
       spreadMethod="pad"
       gradientTransform="matrix(0,968.845,968.845,0,3722.4,1034.69)"
       gradientUnits="userSpaceOnUse"
       y2="0"
       x2="1"
       y1="0"
       x1="0"><stop
         id="stop330"
         offset="0"
         style="stop-opacity:1;stop-color:#183161" /><stop
         id="stop332"
         offset="1"
         style="stop-opacity:1;stop-color:#1f3f75" /></linearGradient><clipPath
       id="clipPath384"
       clipPathUnits="userSpaceOnUse"><path
         id="path382"
         d="m 4456.31,1602.07 h -28.6 v 49.65 c 5.51,-9.07 10.88,-18.18 16.1,-27.29 v -6.26 h 3.56 c 3.03,-5.36 6.01,-10.73 8.94,-16.1" /></clipPath><linearGradient
       id="linearGradient390"
       spreadMethod="pad"
       gradientTransform="matrix(0,968.845,968.845,0,3722.4,1034.69)"
       gradientUnits="userSpaceOnUse"
       y2="0"
       x2="1"
       y1="0"
       x1="0"><stop
         id="stop386"
         offset="0"
         style="stop-opacity:1;stop-color:#081232" /><stop
         id="stop388"
         offset="1"
         style="stop-opacity:1;stop-color:#0a1942" /></linearGradient></defs><g
     transform="matrix(1.3333333,0,0,-1.3333333,0,666.66667)"
     id="g10"><g
       transform="scale(0.1)"
       id="g12"><path
         id="path14"
         style="fill:#ffffff;fill-opacity:1;fill-rule:nonzero;stroke:none"
         d="M 0,0 H 7500 V 5000 H 0 Z" /><path
         id="path16"
         style="fill:#e4ebf7;fill-opacity:1;fill-rule:nonzero;stroke:none"
         d="m 6234.38,2159.56 c 1.28,-182.28 -10.95,-349.42 -33.66,-497.24 -1.61,-11.12 -3.38,-22.23 -5.31,-33.01 -11.91,-71.99 -26.41,-139.13 -42.83,-201.13 -2.9,-10.63 -5.8,-21.09 -8.7,-31.4 -63.12,-220.61 -152.82,-369.72 -248.46,-424.792 H 1877.33 c 0,0 -342.5,296.942 -411.26,721.082 -1.77,10.79 -3.38,21.58 -4.67,32.53 -26.73,211.1 16.26,451.51 201.28,701.59 84.38,113.84 195.33,193.07 322.7,247.65 9.98,4.19 19.81,8.22 29.95,12.08 188.88,73.92 410.78,97.1 633.64,100.64 11.27,0.16 22.54,0.33 33.81,0.33 132.69,0.96 265.05,-4.51 390.49,-9.51 11.92,-0.64 23.67,-1.12 35.43,-1.6 202.57,-8.54 385.17,-14.82 517.7,9.49 h 0.16 c 12.23,2.26 23.83,4.84 35.1,7.73 h 0.16 c 146.7,35.91 219,119.16 166.99,298.23 -100.81,347.33 2.41,601.91 227.04,742.49 11.43,7.24 23.35,14.17 35.43,20.77 127.05,68.92 287.6,104.99 469.23,104.5 12.72,0 25.6,-0.32 38.65,-0.64 154.42,-4.67 323.02,-35.1 498.05,-93.23 94.2,-31.24 181.96,-69.89 263.28,-114.49 9.98,-5.48 19.97,-11.11 29.63,-16.91 159.41,-92.11 293.55,-208.37 404.66,-339.76 7.56,-8.7 14.81,-17.56 22.05,-26.58 288.73,-355.86 414.64,-815.27 417.55,-1208.82" /><path
         id="path18"
         style="fill:#ffffff;fill-opacity:1;fill-rule:nonzero;stroke:none"
         d="m 6152.58,1428.18 c -2.9,-10.63 -5.8,-21.09 -8.7,-31.4 -59.42,21.26 -121.9,48.47 -185.82,83.09 -294.68,160.06 -669.88,516.58 -783.56,1306.89 -48.95,340.73 13.53,665.2 185.99,964.87 9.98,-5.48 19.97,-11.11 29.63,-16.91 -151.37,-262.8 -236.39,-576.96 -183.73,-943.29 111.74,-776.31 477.93,-1125.89 765.51,-1282.42 61.84,-33.65 122.71,-60.22 180.68,-80.83" /><path
         id="path20"
         style="fill:#ffffff;fill-opacity:1;fill-rule:nonzero;stroke:none"
         d="m 6200.72,1662.31 c -1.61,-11.11 -3.38,-22.22 -5.31,-33 -186.14,87.43 -420.76,277.6 -530.26,690.48 -105.79,399.82 -63.61,754.72 129.63,1075.17 7.56,-8.7 14.81,-17.56 22.06,-26.58 -183.73,-310.46 -222.87,-653.92 -120.45,-1040.38 104.66,-395 326.4,-579.54 504.33,-665.69" /><path
         id="path22"
         style="fill:#ffffff;fill-opacity:1;fill-rule:nonzero;stroke:none"
         d="m 4443.77,3285.14 c 15.62,-524.63 -44.12,-863.59 -193.72,-1099.33 -156.68,-247.01 -418.02,-396.29 -847.48,-484.04 -80.03,-16.43 -159.09,-24.64 -236.71,-24.64 -241.7,0 -469.39,78.74 -668.9,232.67 -232.04,179.23 -409.65,449.12 -511.58,765.04 9.98,4.19 19.81,8.22 29.95,12.08 99.84,-310.62 273.9,-575.99 501.44,-751.67 255.71,-197.57 559.88,-267.3 879.36,-202.09 798.68,163.44 1045.38,540.4 1015.43,1551.01 -8.53,286.95 41.55,513.35 148.95,675.82 12.72,0 25.6,-0.32 38.65,-0.64 -111.76,-157.8 -163.93,-383.89 -155.39,-674.21" /><path
         id="path24"
         style="fill:#ffffff;fill-opacity:1;fill-rule:nonzero;stroke:none"
         d="m 3447.17,2199.49 c -33.17,-5.47 -67.46,-8.37 -102.41,-8.37 -257.48,0 -552.32,156.04 -695.79,596.44 11.27,0.16 22.54,0.33 33.81,0.33 158.13,-472.77 497.09,-599.67 759.08,-556.67 353.94,57.97 694.35,422.37 628.48,983.54 -28.34,240.74 -29.62,446.21 -14.49,619.96 11.43,7.24 23.35,14.17 35.43,20.77 -17.55,-176.97 -18.19,-387.91 11.11,-637.02 68.12,-580.99 -286.79,-958.59 -655.22,-1018.98" /><path
         id="path26"
         style="fill:#ffffff;fill-opacity:1;fill-rule:nonzero;stroke:none"
         d="m 3661.66,2794 c -12.4,-56.51 -34.14,-114.16 -71.33,-162.63 -49.44,-64.73 -118.84,-103.06 -206.28,-113.85 -10.47,-1.28 -20.77,-1.93 -30.92,-1.93 -54.26,0 -104.02,18.52 -148.14,55.55 -58.29,48.96 -100.8,124.96 -131.72,207.24 11.92,-0.64 23.67,-1.12 35.43,-1.6 28.66,-72.79 66.66,-138.65 117.06,-181 45.09,-37.84 97.1,-53.46 154.27,-46.38 78.58,9.67 140.57,43.8 184.7,101.29 30.59,39.93 49.91,87.76 61.67,135.58 h 0.16 c 12.23,2.26 23.83,4.84 35.1,7.73" /><path
         id="path28"
         style="fill:#ffffff;fill-opacity:1;fill-rule:nonzero;stroke:none"
         d="m 2411.29,971.988 h -35.1 c -144.44,330.752 -352.65,551.192 -619.63,655.712 -96.94,37.99 -195.32,57.8 -290.49,65.37 -1.77,10.79 -3.38,21.58 -4.67,32.53 100.32,-7.25 204.34,-27.87 306.92,-67.95 278.73,-109.18 494.83,-339.45 642.97,-685.662" /><path
         id="path30"
         style="fill:#ffffff;fill-opacity:1;fill-rule:nonzero;stroke:none"
         d="m 4630.08,375.152 v 0" /><path
         id="path32"
         style="fill:#98b2d8;fill-opacity:1;fill-rule:nonzero;stroke:none"
         d="m 1714.3,1968.8 -99.51,-102.58 -41.55,61.04 -13.85,20.44 c -44.28,-11.11 -109.66,75.52 -135.9,121.73 -26.09,46.38 78.58,117.88 78.58,117.88 -17.08,51.21 -85.67,83.41 -87.6,97.58 -1.94,14.01 15.14,29.14 77.45,0 62.48,-29.3 116.75,-132.85 116.75,-132.85 11.1,30.12 -38.17,111.59 -29.15,120.77 9.02,9.03 57.33,-2.09 94.52,-80.5 37.36,-78.59 15.14,-171.18 15.14,-171.18 l 0.48,-0.81 24.64,-51.52" /><path
         id="path34"
         style="fill:#b1c3e8;fill-opacity:1;fill-rule:nonzero;stroke:none"
         d="m 1498.37,2196.33 c 0,0 73.95,-84.58 65.98,-117.79 -7.98,-33.22 -45.21,5.33 -45.21,5.33 0,0 34.21,-39.55 23.14,-52.64 -11.07,-13.08 -52.33,20.14 -52.33,20.14 0,0 49.31,-61.4 0,-52.34 -49.32,9.06 -111.26,102.06 -63.68,111.42 0,0 -5.76,67.72 37.51,44.57 0,0 -19.38,56.45 34.59,41.31" /><path
         id="path36"
         style="fill:#b7cae5;fill-opacity:1;fill-rule:nonzero;stroke:none"
         d="m 2396.84,971.398 c 0,0 83.24,243.152 39.44,482.922 0,0 -0.16,0.49 -0.32,1.61 l -0.32,1.93 c -1.28,6.28 -2.57,12.56 -3.86,18.84 0,0 -48.31,-42.19 -114.97,-84.05 -80.04,-50.4 -186.8,-100.48 -268.76,-76.98 -150.4,43 -370.36,335.42 -472.45,566.33 0,0 51.05,76.5 152.97,100 0,0 204.03,-271.81 383.89,-336.22 0,0 96.62,115.45 171.66,284.53 47.98,107.89 119.96,176.17 210.78,212.87 51.53,21.11 109.18,31.89 171.81,33.82 l 157.65,73.6 c 0,0 25.6,-0.17 65.38,-5.32 73.91,-9.67 196.77,-36.71 296.12,-112.4 152.98,-116.58 373.1,-1161.482 373.1,-1161.482 H 2396.84" /><path
         id="path38"
         style="fill:#97b3d1;fill-opacity:1;fill-rule:nonzero;stroke:none"
         d="m 2435.96,1455.93 c -1.28,6.92 -2.73,13.85 -4.18,20.77 0,0 -48.31,-42.19 -114.97,-84.05 l 46.53,398.05 c 47.34,-182.28 70.05,-318.51 72.62,-334.77" /><path
         id="path40"
         style="fill:#ced9ea;fill-opacity:1;fill-rule:nonzero;stroke:none"
         d="m 2889.74,2245.28 c -24.32,-154.59 -179.07,-297.42 -290.82,-295.48 -89.85,1.61 -103.06,130.43 -104.02,193.38 51.53,21.11 109.18,31.89 171.81,33.82 l 157.65,73.6 c 0,0 25.6,-0.17 65.38,-5.32" /><path
         id="path42"
         style="fill:#97b3d1;fill-opacity:1;fill-rule:nonzero;stroke:none"
         d="m 2622.23,1129.39 c 0,0 355.03,369.45 370.46,757.93 l 104.66,-327.43 -40.26,-340.88 -434.86,-89.62" /><path
         id="path44"
         style="fill:#98b2d8;fill-opacity:1;fill-rule:nonzero;stroke:none"
         d="m 2611.92,971.48 h -397.53 c 0,0 1.01,54.35 62.4,72.47 61.39,18.11 100.64,94.59 284.82,84.53 l 50.31,-157" /><path
         id="path46"
         style="fill:#b6c5dd;fill-opacity:1;fill-rule:nonzero;stroke:none"
         d="m 3018.64,1336.83 c 0,0 -187.28,-107.71 -482.19,-184.19 0,0 -40.93,-98.64 30.86,-181.16 h 570.58 l -119.25,365.35" /><path
         id="path48"
         style="fill:#5d7ca0;fill-opacity:1;fill-rule:nonzero;stroke:none"
         d="m 2321.27,2465.91 c 0,0 -84.78,117.02 -74.35,195.8 10.42,78.79 83.36,60.29 83.36,60.29 0,0 -3.4,191.45 173.83,142.5 0,0 -3.91,58.45 34.8,56.94 38.69,-1.51 99.38,-90.53 99.38,-90.53 0,0 15.06,65.95 41.27,50.38 26.21,-15.56 34.29,-83.62 89.03,-116.38 54.74,-32.76 88.6,-75.16 45.62,-207.99 -42.98,-132.84 -10.73,-142.24 -26.08,-210.45 -14.58,-64.77 -26.23,-104.17 -66.43,-107.81 -40.2,-3.64 -194.1,158.72 -194.1,158.72 l -206.33,68.53" /><path
         id="path50"
         style="fill:#98b2d8;fill-opacity:1;fill-rule:nonzero;stroke:none"
         d="m 2824.36,2250.6 c 0,0 -98.71,-239.46 -202.41,-221.42 -51.53,9.02 -62.96,40.42 -63.44,76.81 -0.49,47.51 18.03,103.22 -9.99,126.57 l 124.31,176.64 27.38,38.97 c 0,0 33.49,-96.94 124.15,-197.57" /><path
         id="path52"
         style="fill:#799cbf;fill-opacity:1;fill-rule:nonzero;stroke:none"
         d="m 2558.51,2105.99 c -0.49,47.51 18.03,103.22 -9.99,126.57 l 124.31,176.64 c 10.63,-12.39 18.2,-34.45 21.26,-69.07 16.42,-182.44 -80.03,-224.8 -135.58,-234.14" /><path
         id="path54"
         style="fill:#98b2d8;fill-opacity:1;fill-rule:nonzero;stroke:none"
         d="m 2309.19,2559.01 c 0,0 33.61,-308.44 159.47,-377.87 109.38,-60.34 242.23,122.16 239.56,212.43 0,0 47.67,36.41 39.72,95.35 -7.95,58.93 -70.27,39.39 -77.73,-55.59 0,0 -50.67,3.61 -60.05,122.32 -31.81,-26.33 -66.14,-18.22 -102.21,13.82 0,0 -17.89,-66.07 -109.97,11.15 0,0 -34.74,-47.18 -88.79,-21.61" /><path
         id="path56"
         style="fill:#5d7ca0;fill-opacity:1;fill-rule:nonzero;stroke:none"
         d="m 5277.92,1363.98 c 0,0 162.45,-271.06 218.72,-402.558 h -572.85 c 0,0 -32.64,158.438 -90.04,310.698 l 444.17,91.86" /><path
         id="path58"
         style="fill:#799cbf;fill-opacity:1;fill-rule:nonzero;stroke:none"
         d="m 5054.49,1303.59 c -31.34,-103.87 -79.15,-192.57 -150.07,-259.94 l 19.37,-82.228 -693.22,8.547 77.16,474.521 746.76,-140.9" /><path
         id="path60"
         style="fill:#799cbf;fill-opacity:1;fill-rule:nonzero;stroke:none"
         d="m 6141.95,2782.89 c 0,0 22.95,143.72 68.58,194.71 45.62,50.99 170.42,126.42 185.17,99.58 14.77,-26.83 -110.03,-110.99 -110.03,-110.99 0,0 56.36,13.42 104.67,-69.77 48.3,-83.2 -107.35,-147.61 -107.35,-147.61 l -30.87,-69.78 -123.45,77.83 13.28,26.03" /><path
         id="path62"
         style="fill:#98b2d8;fill-opacity:1;fill-rule:nonzero;stroke:none"
         d="m 6301.59,2963.47 c 0,0 -69.56,-70.73 -59.38,-90.95 10.16,-20.21 48.5,11.56 48.5,11.56 0,0 -31.3,-47.64 -7.04,-59.92 24.26,-12.27 61.82,28.88 61.82,28.88 0,0 -31.3,-43.31 -13.3,-51.26 18,-7.94 114.24,59.91 97.02,75.79 -17.21,15.89 -26.6,2.9 -26.6,2.9 0,0 20.14,33.92 0,44.75 -21.93,11.79 -32.86,-9.38 -32.86,-9.38 0,0 16.43,25.99 3.13,36.09 -13.31,10.11 -41.47,-2.89 -41.47,-2.89 0,0 9.23,43.3 -29.82,14.43" /><path
         id="path64"
         style="fill:#98b2d8;fill-opacity:1;fill-rule:nonzero;stroke:none"
         d="m 6237.03,2965.19 c -21.14,6.04 -64.08,-37.91 -64.08,-37.91 -16.89,-21.73 -20.34,-65.03 -21.02,-84.99 -2.16,-55.77 -23.26,-85.43 -23.26,-85.43 l 62.65,-39.5 c 48.51,62.5 32.64,142.54 24.81,170.86 23.65,35.33 33.51,73.36 20.9,76.97" /><path
         id="path66"
         style="fill:#b7cae5;fill-opacity:1;fill-rule:nonzero;stroke:none"
         d="m 6277.57,2664.27 c 0,0 -209.34,-557.47 -542.02,-606.91 -148.78,-22.06 -261.19,-24.31 -339.76,-20.12 -93.72,4.82 -139.77,18.99 -143.15,19.96 l -0.17,0.16 c 0,0 -91.3,-170.04 -32.21,-414.32 58.94,-244.11 80.52,-295.16 80.52,-295.16 0,0 -448.46,-329.78 -813.18,-29.47 l -329.14,511.75 -103.06,160.38 c 0,0 94.69,310.94 361.67,513.03 l 0.16,0.16 c 100.64,76.32 225.92,137.19 379.7,159.73 78.9,11.92 165.21,13.69 259.57,2.42 0,0 72.47,-20.45 190.34,-63.6 63.44,-23.19 140.09,-52.98 225.59,-89.7 244.28,-104.66 311.43,-135.9 311.43,-135.9 0,0 260.22,256.67 327.37,412.38 0,0 134.13,-13.52 166.34,-124.79" /><path
         id="path68"
         style="fill:#97b3d1;fill-opacity:1;fill-rule:nonzero;stroke:none"
         d="m 4598.09,2409.74 c -1.21,-124.94 -27.9,-245.99 -39.66,-340.01 l 206.85,41.86 321.88,-318.22 c 0,0 40.78,-93.24 -42.24,-109.35 -65.06,-12.61 -369.05,-54.9 -369.05,-54.9 -70.06,-95.35 -101.72,-241.22 -136.66,-382.76 l -308.64,536.29 367.52,627.09" /><path
         id="path70"
         style="fill:#ced9ea;fill-opacity:1;fill-rule:nonzero;stroke:none"
         d="m 5056.5,2379.74 c -144.12,36.55 -219.96,166.17 -259.57,283.72 78.9,11.92 165.21,13.69 259.57,2.42 0,0 72.46,-20.45 190.34,-63.6 13.84,-102.9 8.85,-272.94 -190.34,-222.54" /><path
         id="path72"
         style="fill:#97b3d1;fill-opacity:1;fill-rule:nonzero;stroke:none"
         d="m 5434.91,2265.73 c 0,0 -30.91,-121.09 -39.12,-228.49 -93.72,4.82 -139.77,18.99 -143.15,19.96 l -0.17,0.16 c 0,0 81.81,139.93 182.44,208.37" /><path
         id="path74"
         style="fill:#f2f4f9;fill-opacity:1;fill-rule:nonzero;stroke:none"
         d="m 5075.19,1740.32 -359.46,-52.18 c -10.63,-1.54 -20.51,5.83 -22.05,16.47 l -79.41,547.13 c -1.55,10.63 5.83,20.5 16.46,22.04 l 359.48,52.18 c 10.63,1.54 20.5,-5.83 22.05,-16.47 l 79.4,-547.12 c 1.54,-10.63 -5.83,-20.5 -16.47,-22.05" /><path
         id="path76"
         style="fill:#98b2d8;fill-opacity:1;fill-rule:nonzero;stroke:none"
         d="m 4813.62,2088.6 55.02,21.47 c 0,0 52.34,144.92 117.41,53.68 0,0 44.96,26.84 43.62,41.59 -1.35,14.77 -2.01,36.23 -2.01,36.23 0,0 91.08,-19.68 70.7,-146.71 -18.17,-113.22 -81.98,-112.73 -149.79,-112.24 -8.27,0.06 -16.6,0.11 -24.91,-0.03 l -95.27,-37.57 -14.77,143.58" /><path
         id="path78"
         style="fill:#c1cfe5;fill-opacity:1;fill-rule:nonzero;stroke:none"
         d="m 4849.1,1911.48 c 0,0 -428.65,-283.74 -613.83,-146.86 -28.18,20.93 -53.79,42.99 -76.81,65.54 l -103.06,160.38 c 0,0 94.69,310.94 361.67,513.03 l 0.16,0.16 c 88.49,39.76 180.96,25.28 185.72,-56.71 11.32,-195.28 -155.7,-315.37 -176.38,-403.99 l 384.21,77.77 c 0,0 62.47,-66.34 38.32,-209.32" /><path
         id="path80"
         style="fill:#5d7ca0;fill-opacity:1;fill-rule:nonzero;stroke:none"
         d="m 5352.98,2963.02 c 0,0 61.26,130.87 36.2,206.29 -25.05,75.43 -93.2,43.54 -93.2,43.54 0,0 -32.67,188.67 -197.52,107.27 0,0 -7.17,58.15 -44.89,49.38 -37.73,-8.76 -80.59,-107.6 -80.59,-107.6 0,0 -27.19,61.94 -50,41.73 -22.82,-20.22 -17.96,-88.59 -65.57,-131.05 -47.6,-42.47 -72.89,-90.48 -5.7,-212.86 67.19,-122.39 37.29,-137.69 65.19,-201.78 26.5,-60.88 45.35,-97.39 85.51,-93.41 40.18,3.99 160.79,192.39 160.79,192.39 l 189.78,106.1" /><path
         id="path82"
         style="fill:#98b2d8;fill-opacity:1;fill-rule:nonzero;stroke:none"
         d="m 4899.35,2656.95 c 0,0 94.76,-233.55 243.71,-195.31 50.66,13.02 50.95,67.44 44.59,103.27 -8.46,46.75 -37.12,97.99 -14,126.19 l -155.3,150.12 -34.22,33.13 c 0,0 -14.67,-101.51 -84.78,-217.4" /><path
         id="path84"
         style="fill:#799cbf;fill-opacity:1;fill-rule:nonzero;stroke:none"
         d="m 5187.65,2564.91 c -8.46,46.75 -37.12,97.99 -14,126.19 l -155.3,150.12 c -8.12,-14.17 -11.4,-37.26 -7.89,-71.85 18.17,-182.27 120.87,-205.73 177.19,-204.46" /><path
         id="path86"
         style="fill:#98b2d8;fill-opacity:1;fill-rule:nonzero;stroke:none"
         d="m 5347.33,3056.73 c 0,0 24.99,-309.26 -85.57,-401.11 -96.09,-79.83 -260.88,74.43 -275.23,163.59 0,0 -53.67,26.8 -56.94,86.18 -3.27,59.38 61.61,51.9 86.81,-39.98 0,0 49.08,13.08 35.96,131.43 36.2,-19.88 68.38,-5.46 97.79,32.79 0,0 30,-61.52 105.91,31.62 0,0 43,-39.79 91.27,-4.52" /><g
         id="g88"><g
           clip-path="url(#clipPath94)"
           id="g90"><path
             id="path102"
             style="fill:url(#linearGradient100);fill-opacity:1;fill-rule:nonzero;stroke:none"
             d="m 4179.32,969.969 c -32.16,0 -52.74,1.429 -52.74,1.429 h -768.91 v 0 c -318.18,0 -445.71,7.891 -476.15,107.242 -1.77,5.32 -3.06,10.95 -4.18,16.91 -3.93,21 -3.58,50.63 0.8,86.58 15.08,123.59 77.91,322.05 179.23,502.84 5.48,9.77 11.06,19.47 16.76,29.13 l 64.92,-57.55 c 2.41,-2.13 5.15,-3.06 7.81,-3.06 7.47,0 14.31,7.33 11.35,15.88 l -32.79,94.72 h 101.51 c 21.94,0 39.73,17.79 39.73,39.73 v 155.05 c 4.95,4.48 9.89,8.83 14.84,13.07 62.13,53.28 123.37,87.67 180.36,109.74 89.37,34.62 168.27,39.12 223.67,39.12 97.57,0 176.33,-7.24 243.15,-22.86 55.3,-12.96 102.47,-31.56 145.4,-56.37 v 0 c 93.36,-53.95 166.63,-137.26 259.7,-255.63 v -221.68 c 0,-21.13 17.13,-38.24 38.24,-38.24 h 122.23 c 30.99,-68.39 53,-135.56 65.09,-197.75 4.41,-22.7 7.51,-44.73 9.23,-65.91 3.6,-44.25 1.22,-84.8 -7.55,-119.95 v -0.16 c -4.66,-19 -11.26,-36.39 -19.8,-52.02 -49.61,-90.699 -204.68,-114.039 -310.46,-119.05 -19.04,-0.899 -36.49,-1.211 -51.44,-1.211 m -837.74,761.691 c -23.19,-184.76 -49.42,-366.81 -132.86,-498.03 218.71,-163.07 410.49,-216.84 568.41,-216.84 306.2,0 484.98,202.27 484.98,202.27 -83.3,164.77 -107.39,337 -104.67,512.6 l -115.4,-375.73 h -628 l -72.46,375.73" /></g></g><g
         id="g104"><g
           clip-path="url(#clipPath110)"
           id="g106"><path
             id="path118"
             style="fill:url(#linearGradient116);fill-opacity:1;fill-rule:nonzero;stroke:none"
             d="m 3777.13,1016.79 c -157.92,0 -349.7,53.77 -568.41,216.84 83.44,131.22 109.67,313.27 132.86,498.03 l 72.46,-375.73 h 628 l 115.4,375.73 c -2.72,-175.6 21.37,-347.83 104.67,-512.6 0,0 -178.78,-202.27 -484.98,-202.27" /></g></g><g
         id="g120"><g
           clip-path="url(#clipPath126)"
           id="g122"><path
             id="path134"
             style="fill:url(#linearGradient132);fill-opacity:1;fill-rule:nonzero;stroke:none"
             d="m 3399.38,971.398 h -41.7 c -318.19,0 -445.72,7.891 -476.16,107.242 -16.58,78.1 4.51,160.23 99.68,184.7 149.11,38.32 408.68,-112.72 408.68,-112.72 l 9.5,-179.222" /></g></g><g
         id="g136"><g
           clip-path="url(#clipPath142)"
           id="g138"><path
             id="path150"
             style="fill:url(#linearGradient148);fill-opacity:1;fill-rule:nonzero;stroke:none"
             d="m 4561.03,1142.41 v -0.16 c -4.67,-19 -11.27,-36.39 -19.81,-52.02 -77.77,-142.171 -414.64,-118.832 -414.64,-118.832 h -228.17 l 28.98,193.232 c 0,0 404.49,187.27 549.42,128.83 70.86,-28.51 92.59,-87.77 84.22,-151.05" /></g></g><path
         id="path152"
         style="fill:#1f395e;fill-opacity:1;fill-rule:nonzero;stroke:none"
         d="m 3928.68,2097.94 c -6.77,-90.33 -44.13,-254.9 -226.08,-254.9 -191.78,0 -232.37,162.15 -240.74,238.64 89.37,34.62 168.27,39.12 223.67,39.12 97.58,0 176.33,-7.25 243.15,-22.86" /><path
         id="path154"
         style="fill:#ffffff;fill-opacity:1;fill-rule:nonzero;stroke:none"
         d="m 4094.38,971.48 h -736.7 c -17.79,0 -32.21,14.418 -32.21,32.2 0,17.79 14.42,32.21 32.21,32.21 h 736.7 c 17.78,0 32.2,-14.42 32.2,-32.21 0,-17.782 -14.42,-32.2 -32.2,-32.2" /><g
         id="g156"><g
           clip-path="url(#clipPath162)"
           id="g158"><path
             id="path170"
             style="fill:url(#linearGradient168);fill-opacity:1;fill-rule:nonzero;stroke:none"
             d="m 4183.58,1525.33 -2.74,-16.75 v -0.15 l -76.32,-472.62 h -750.87 l -75.52,489.84 c -3.7,24 14.98,45.74 39.13,45.74 h 827.19 c 24.48,0 43,-21.91 39.13,-46.06" /></g></g><path
         id="path172"
         style="fill:#3150bc;fill-opacity:1;fill-rule:nonzero;stroke:none"
         d="m 4180.84,1508.43 -76.32,-472.62 h -746.84 l 253.13,26.41 c 259.89,26.89 481.31,200.48 570.03,446.21" /><path
         id="path174"
         style="fill:#feb19e;fill-opacity:1;fill-rule:nonzero;stroke:none"
         d="m 3699.54,1911.47 h -4.99 c -28.99,0 -52.98,5.96 -72.47,14.65 -47.34,21.26 -76,70.7 -74.87,122.54 0.16,5.32 0.16,10.47 0.16,15.63 0.16,42.99 -2.58,78.74 -2.58,78.74 v 19.32 l 270.52,12.07 c 0.97,-38.96 5.48,-73.58 10.79,-101.28 l 0.33,-1.28 c 15.45,-81.32 -44.13,-158.3 -126.89,-160.39" /><path
         id="path176"
         style="fill:#ff856a;fill-opacity:1;fill-rule:nonzero;stroke:none"
         d="m 3826.1,2073.14 c -112.72,-132.36 -228.49,-55.07 -278.73,-8.85 0.16,42.99 -2.58,78.74 -2.58,78.74 v 19.32 l 270.52,12.07 c 0.97,-38.96 5.48,-73.58 10.79,-101.28" /><path
         id="path178"
         style="fill:#feb19e;fill-opacity:1;fill-rule:nonzero;stroke:none"
         d="m 3462.01,2293.85 c 0,0 83.87,-236.45 223.76,-236.45 139.89,0 198.05,254.61 198.05,254.61 v 221.42 h -432.55 l 10.74,-239.58" /><path
         id="path180"
         style="fill:#feb19e;fill-opacity:1;fill-rule:nonzero;stroke:none"
         d="m 3416.99,2427.25 c 0,0 -41.19,-7.54 -34.15,-54.84 7.04,-47.3 49.98,-104.67 84.87,-74.48 l -50.72,129.32" /><path
         id="path182"
         style="fill:#feb19e;fill-opacity:1;fill-rule:nonzero;stroke:none"
         d="m 3916.48,2447.02 c 0,0 41.84,-1.85 41.29,-49.68 -0.53,-47.82 -35.28,-110.49 -73.95,-85.33 l 32.66,135.01" /><g
         id="g184"><g
           clip-path="url(#clipPath190)"
           id="g186"><path
             id="path198"
             style="fill:url(#linearGradient196);fill-opacity:1;fill-rule:nonzero;stroke:none"
             d="m 3916.48,2447.02 c 0,0 -14.55,-82.67 -32.66,-135.01 0,0 -33.15,6.68 -43.88,93.91 0,0 -71.65,-14.05 -116.6,53.71 0,0 -10.73,-67.09 -79.84,-19.45 -46.08,-37.63 -100.56,-41.59 -162.37,-16.11 0,0 10.4,-87.96 -19.12,-130.22 0,0 -10.74,34.74 -45.02,133.4 0,0 -14.72,-0.52 -24.12,-13.94 0,0 -74.11,144.95 -39.22,214.73 34.89,69.78 81.86,42.94 81.86,42.94 0,0 -17.45,95.27 85.88,130.16 103.32,34.89 103.32,81.86 119.43,72.46 16.1,-9.39 22.81,-44.28 22.81,-44.28 0,0 178.47,18.79 226.78,-173.1 0,0 128.9,-4.12 52.4,-220.17 0,0 -5.03,8.96 -26.33,10.97" /></g></g><path
         id="path200"
         style="fill:#aec6ed;fill-opacity:1;fill-rule:nonzero;stroke:none"
         d="m 3266.66,2006.27 c -27.91,61.91 -55.29,107.17 -80.8,126.61 -99.35,75.69 -222.21,102.73 -296.12,112.4 -2.09,0.27 -4.14,0.53 -6.15,0.77 h 202.32 c 59.72,-26.52 120.72,-42.72 180.75,-50.13 v -189.65 m -753.85,143.75 v 19.15 c 0.6,-0.01 1.2,-0.02 1.8,-0.02 16.58,0 33.19,4.26 49.33,11.69 -0.19,-5.33 -0.59,-10.83 -1.08,-16.45 -17.22,-3.87 -33.92,-8.65 -50.05,-14.37 m 746.34,79.56 c -25.76,3.72 -51.69,9.17 -77.58,16.47 h 45.36 c 13.26,0 25,-6.49 32.22,-16.47" /><path
         id="path202"
         style="fill:#c2d7f4;fill-opacity:1;fill-rule:nonzero;stroke:none"
         d="m 3266.66,2195.92 c -60.03,7.41 -121.03,23.61 -180.75,50.13 h 95.66 c 25.89,-7.3 51.82,-12.75 77.58,-16.47 4.72,-6.53 7.51,-14.56 7.51,-23.24 v -10.42" /><path
         id="path204"
         style="fill:#8caadb;fill-opacity:1;fill-rule:nonzero;stroke:none"
         d="m 3074.13,1714.1 -36.38,32.25 -33.33,104.25 h 140.42 c 5.85,0 10.59,4.74 10.59,10.59 0,5.85 -4.74,10.6 -10.59,10.6 h -147.19 l -4.96,15.53 c -0.21,-5.17 -0.48,-10.37 -0.8,-15.53 h -385.51 c -5.85,0 -10.59,-4.75 -10.59,-10.6 0,-5.85 4.74,-10.59 10.59,-10.59 h 383.85 c -2.71,-29.05 -7.23,-57.95 -13.23,-86.51 h -424.47 c -21.94,0 -39.72,17.79 -39.72,39.73 v 221.8 c 14.52,-41.25 40.39,-75 86.11,-75.82 0.75,-0.02 1.5,-0.02 2.25,-0.02 31.74,0 66.82,11.48 101.33,31.46 h 442.34 c 5.85,0 10.59,4.75 10.59,10.6 0,5.85 -4.74,10.59 -10.59,10.59 h -410.19 c 17.36,12.85 34.24,27.7 50.12,44.13 h 360.07 c 5.85,0 10.59,4.75 10.59,10.6 0,5.85 -4.74,10.59 -10.59,10.59 h -340.92 c 42.89,50.72 75.68,113.11 85.82,177.53 -2.09,0.27 -4.14,0.53 -6.15,0.77 v 0 c 2.01,-0.24 4.06,-0.5 6.15,-0.77 73.91,-9.67 196.77,-36.71 296.12,-112.4 25.51,-19.44 52.89,-64.7 80.8,-126.61 v -47.4 c -34.98,-31.66 -70.17,-69.45 -104.95,-114.54 -31.54,-40.94 -60.79,-84.85 -87.58,-130.23 m -467.75,223.01 c -5.85,0 -10.59,-4.75 -10.59,-10.6 0,-5.85 4.74,-10.59 10.59,-10.59 h 538.46 c 5.85,0 10.59,4.74 10.59,10.59 0,5.85 -4.74,10.6 -10.59,10.6 h -538.46" /><path
         id="path206"
         style="fill:#9db7e0;fill-opacity:1;fill-rule:nonzero;stroke:none"
         d="m 2601.17,1949.78 c -0.75,0 -1.5,0 -2.25,0.02 -45.72,0.82 -71.59,34.57 -86.11,75.82 v 124.4 c 16.13,5.72 32.83,10.5 50.05,14.37 -1.64,-18.4 -4.35,-37.99 -4.36,-56.45 0,-0.65 0,-1.3 0.01,-1.95 v 0 c 0.48,-36.39 11.91,-67.79 63.44,-76.81 3.76,-0.65 7.52,-0.97 11.27,-0.97 18.73,0 37.18,7.89 54.8,20.69 1.82,-1.46 4.12,-2.34 6.63,-2.34 h 90.12 c -15.88,-16.43 -32.76,-31.28 -50.12,-44.13 h -128.27 c -5.85,0 -10.59,-4.74 -10.59,-10.59 0,-5.85 4.74,-10.6 10.59,-10.6 h 96.12 c -34.51,-19.98 -69.59,-31.46 -101.33,-31.46 m 202.75,117.97 h -93.83 c 20.59,20.18 39.57,45.84 55.9,71.51 3.74,1.63 6.34,5.36 6.34,9.69 0,0.16 0,0.31 -0.01,0.46 26.05,42.66 44.34,83.34 50.11,96.64 h 61.16 c 2.01,-0.24 4.06,-0.5 6.15,-0.77 -10.14,-64.42 -42.93,-126.81 -85.82,-177.53" /><path
         id="path208"
         style="fill:#7397c8;fill-opacity:1;fill-rule:nonzero;stroke:none"
         d="m 3037.75,1746.35 -20.02,17.74 H 2977 c 6,28.56 10.52,57.46 13.23,86.51 h 14.19 l 33.33,-104.25 m -40.1,125.44 h -5.76 c 0.32,5.16 0.59,10.36 0.8,15.53 l 4.96,-15.53" /><path
         id="path210"
         style="fill:#7496cf;fill-opacity:1;fill-rule:nonzero;stroke:none"
         d="m 2633.22,2028.21 c -3.75,0 -7.51,0.32 -11.27,0.97 -51.53,9.02 -62.96,40.42 -63.44,76.81 21.67,3.64 49.58,12.32 74.58,32.38 h 128.65 c 1.52,0 2.95,0.32 4.25,0.89 -16.33,-25.67 -35.31,-51.33 -55.9,-71.51 h -15.44 c -5.85,0 -10.59,-4.74 -10.59,-10.59 0,-3.34 1.55,-6.32 3.96,-8.26 -17.62,-12.8 -36.07,-20.69 -54.8,-20.69 m 139.1,121.2 c -0.24,5.65 -4.88,10.14 -10.58,10.14 h -107.29 c 16.79,20.52 30.42,48.46 37.08,86.5 h 130.9 c -5.77,-13.3 -24.06,-53.98 -50.11,-96.64" /><path
         id="path212"
         style="fill:#5c83b7;fill-opacity:1;fill-rule:nonzero;stroke:none"
         d="m 2558.51,2105.99 c -0.01,0.65 -0.01,1.3 -0.01,1.95 0.01,24.09 4.63,50.13 5.44,72.9 29.16,13.43 56.79,37.25 79.92,65.21 h 47.67 c -6.66,-38.04 -20.29,-65.98 -37.08,-86.5 h -48.07 c -5.85,0 -10.59,-4.74 -10.59,-10.6 0,-5.84 4.74,-10.58 10.59,-10.58 h 26.71 c -25,-20.06 -52.91,-28.74 -74.58,-32.38 v 0" /><path
         id="path214"
         style="fill:#7496cf;fill-opacity:1;fill-rule:nonzero;stroke:none"
         d="m 2514.61,2169.15 c -0.6,0 -1.2,0.01 -1.8,0.02 v 37.17 c 0,21.93 17.78,39.71 39.72,39.71 h 91.33 c -23.13,-27.96 -50.76,-51.78 -79.92,-65.21 v 0 c -16.14,-7.43 -32.75,-11.69 -49.33,-11.69" /><g
         id="g216"><g
           clip-path="url(#clipPath222)"
           id="g218"><path
             id="path230"
             style="fill:url(#linearGradient228);fill-opacity:1;fill-rule:nonzero;stroke:none"
             d="m 3146.86,1653.49 c -2.66,0 -5.4,0.93 -7.81,3.06 l -64.92,57.55 c 26.79,45.38 56.04,89.29 87.58,130.23 34.78,45.09 69.97,82.88 104.95,114.54 v -155.05 c 0,-21.94 -17.79,-39.73 -39.73,-39.73 h -101.51 l 32.79,-94.72 c 2.96,-8.55 -3.88,-15.88 -11.35,-15.88" /></g></g><path
         id="path232"
         style="fill:#5f87d0;fill-opacity:1;fill-rule:nonzero;stroke:none"
         d="m 2765.99,2139.26 c 2.16,3.38 4.27,6.78 6.33,10.15 0.01,-0.15 0.01,-0.3 0.01,-0.46 0,-4.33 -2.6,-8.06 -6.34,-9.69" /><path
         id="path234"
         style="fill:#466fc0;fill-opacity:1;fill-rule:nonzero;stroke:none"
         d="m 2761.74,2138.37 h -128.65 c 7.46,5.99 14.66,12.99 21.36,21.18 h 107.29 c 5.7,0 10.34,-4.49 10.58,-10.14 -2.06,-3.37 -4.17,-6.77 -6.33,-10.15 -1.3,-0.57 -2.73,-0.89 -4.25,-0.89" /><path
         id="path236"
         style="fill:#3861aa;fill-opacity:1;fill-rule:nonzero;stroke:none"
         d="m 2633.09,2138.37 h -26.71 c -5.85,0 -10.59,4.74 -10.59,10.58 0,5.86 4.74,10.6 10.59,10.6 h 48.07 c -6.7,-8.19 -13.9,-15.19 -21.36,-21.18" /><path
         id="path238"
         style="fill:#557dcc;fill-opacity:1;fill-rule:nonzero;stroke:none"
         d="m 3144.84,2046.56 h -360.07 c 6.57,6.8 12.96,13.88 19.15,21.19 h 340.92 c 5.85,0 10.59,-4.74 10.59,-10.59 0,-5.85 -4.74,-10.6 -10.59,-10.6" /><path
         id="path240"
         style="fill:#5f87d0;fill-opacity:1;fill-rule:nonzero;stroke:none"
         d="m 2784.77,2046.56 h -90.12 c -2.51,0 -4.81,0.88 -6.63,2.34 7.53,5.47 14.89,11.82 22.07,18.85 h 93.83 c -6.19,-7.31 -12.58,-14.39 -19.15,-21.19" /><path
         id="path242"
         style="fill:#466fc0;fill-opacity:1;fill-rule:nonzero;stroke:none"
         d="m 2688.02,2048.9 c -2.41,1.94 -3.96,4.92 -3.96,8.26 0,5.85 4.74,10.59 10.59,10.59 h 15.44 c -7.18,-7.03 -14.54,-13.38 -22.07,-18.85" /><path
         id="path244"
         style="fill:#557dcc;fill-opacity:1;fill-rule:nonzero;stroke:none"
         d="M 3144.84,1981.24 H 2702.5 c 10.81,6.26 21.57,13.36 32.15,21.19 h 410.19 c 5.85,0 10.59,-4.74 10.59,-10.59 0,-5.85 -4.74,-10.6 -10.59,-10.6" /><path
         id="path246"
         style="fill:#5f87d0;fill-opacity:1;fill-rule:nonzero;stroke:none"
         d="m 2702.5,1981.24 h -96.12 c -5.85,0 -10.59,4.75 -10.59,10.6 0,5.85 4.74,10.59 10.59,10.59 h 128.27 c -10.58,-7.83 -21.34,-14.93 -32.15,-21.19" /><path
         id="path248"
         style="fill:#557dcc;fill-opacity:1;fill-rule:nonzero;stroke:none"
         d="m 3144.84,1915.92 h -538.46 c -5.85,0 -10.59,4.74 -10.59,10.59 0,5.85 4.74,10.6 10.59,10.6 h 538.46 c 5.85,0 10.59,-4.75 10.59,-10.6 0,-5.85 -4.74,-10.59 -10.59,-10.59" /><path
         id="path250"
         style="fill:#557dcc;fill-opacity:1;fill-rule:nonzero;stroke:none"
         d="m 3144.84,1850.6 h -140.42 l -6.77,21.19 h 147.19 c 5.85,0 10.59,-4.75 10.59,-10.6 0,-5.85 -4.74,-10.59 -10.59,-10.59 m -154.61,0 h -383.85 c -5.85,0 -10.59,4.74 -10.59,10.59 0,5.85 4.74,10.6 10.59,10.6 h 385.51 c -0.45,-7.08 -1,-14.13 -1.66,-21.19" /><path
         id="path252"
         style="fill:#456fba;fill-opacity:1;fill-rule:nonzero;stroke:none"
         d="m 3004.42,1850.6 h -14.19 c 0.66,7.06 1.21,14.11 1.66,21.19 h 5.76 l 6.77,-21.19" /><path
         id="path254"
         style="fill:#c1c8d3;fill-opacity:1;fill-rule:nonzero;stroke:none"
         d="M 6216.86,866.82 H 1321.67 c -9.66,0 -17.48,7.821 -17.48,17.469 v 69.723 c 0,9.648 7.82,17.468 17.48,17.468 h 4895.19 c 9.64,0 17.47,-7.82 17.47,-17.468 v -69.723 c 0,-9.648 -7.83,-17.469 -17.47,-17.469" /><g
         id="g256"><g
           clip-path="url(#clipPath262)"
           id="g258"><path
             id="path270"
             style="fill:url(#linearGradient268);fill-opacity:1;fill-rule:nonzero;stroke:none"
             d="m 5215.12,1229.63 h -209.34 v -181.15 c 0,-42.25 34.25,-76.5 76.5,-76.5 h 56.35 c 42.25,0 76.49,34.25 76.49,76.5 v 181.15" /></g></g><g
         id="g272"><g
           clip-path="url(#clipPath278)"
           id="g274"><path
             id="path286"
             style="fill:url(#linearGradient284);fill-opacity:1;fill-rule:nonzero;stroke:none"
             d="m 5072.21,1229.63 v 55.86 c 0,9.17 7.43,16.6 16.61,16.6 h 21.13 c 9.17,0 16.6,7.43 16.6,16.6 v 21.14 c 0,9.17 -7.43,16.61 -16.6,16.61 h -67.94 c -46.69,0 -84.53,37.85 -84.53,84.54 0,46.69 37.84,84.54 84.53,84.54 h 90.08 c 9.17,0 16.6,7.43 16.6,16.6 v 7.55 c 0,48.36 39.21,87.56 87.56,87.56 48.36,0 87.56,-39.2 87.56,-87.56 0,-52.25 -42.35,-94.6 -94.6,-94.6 H 5070.7 c -9.18,0 -16.61,-7.44 -16.61,-16.61 0,-9.17 7.43,-16.6 16.61,-16.6 h 86.55 c 31.96,0 57.87,-25.91 57.87,-57.88 v -36.23 c 0,-31.96 -25.91,-57.87 -57.87,-57.87 -9.17,0 -16.61,-7.43 -16.61,-16.6 v -23.65 h -68.43" /></g></g><path
         id="path288"
         style="fill:#8caadb;fill-opacity:1;fill-rule:nonzero;stroke:none"
         d="m 4921.52,1526.02 h -301.6 c 3.57,8.66 7.27,17.18 11.11,25.48 h 325.39 c 0.39,0 0.79,0.01 1.18,0.02 -5.25,-14.86 -19.42,-25.5 -36.08,-25.5" /><path
         id="path290"
         style="fill:#7397c8;fill-opacity:1;fill-rule:nonzero;stroke:none"
         d="m 4619.92,1526.02 h -125.67 c -3.84,8.47 -7.82,16.98 -11.94,25.48 h 148.72 c -3.84,-8.3 -7.54,-16.82 -11.11,-25.48" /><path
         id="path292"
         style="fill:#93afdb;fill-opacity:1;fill-rule:nonzero;stroke:none"
         d="m 4360.62,1751.12 c -5.87,7.87 -11.85,15.7 -17.94,23.48 -2.99,3.82 -5.95,7.59 -8.9,11.34 v 472.74 c 0,17.19 11.34,31.73 26.94,36.55 -0.06,-1 -0.1,-2 -0.1,-3 v -541.11" /><g
         id="g294"><g
           clip-path="url(#clipPath300)"
           id="g296"><path
             id="path308"
             style="fill:url(#linearGradient306);fill-opacity:1;fill-rule:nonzero;stroke:none"
             d="m 4494.25,1526.02 h -122.23 c -21.11,0 -38.24,17.11 -38.24,38.24 v 221.68 c 2.95,-3.75 5.91,-7.52 8.9,-11.34 6.09,-7.78 12.07,-15.61 17.94,-23.48 V 1597.8 c 0,-25.52 20.78,-46.3 46.29,-46.3 h 75.4 c 4.12,-8.5 8.1,-17.01 11.94,-25.48" /></g></g><path
         id="path310"
         style="fill:#8caadb;fill-opacity:1;fill-rule:nonzero;stroke:none"
         d="m 4956.42,1567.61 h -317.65 c 11.1,22.17 23.36,42.81 37.1,61.51 0,0 17.65,2.46 45.36,6.36 h 140.03 c 6.6,0 11.96,5.36 11.96,11.96 0,3.69 -1.67,6.98 -4.3,9.18 31.53,4.59 62.96,9.24 90.86,13.5 v -102.33 c -1.11,-0.12 -2.23,-0.18 -3.36,-0.18 m -397.99,502.12 c 3.12,24.96 7.29,51.82 11.77,80.16 11.7,8.01 25.96,16.04 43.08,23.09 l -6.13,14.88 c -12.61,-5.19 -23.77,-10.87 -33.6,-16.69 6.26,39.73 12.72,82.02 17.45,125.75 h 199.19 l -159.46,-23.14 c -10.63,-1.54 -18.01,-11.41 -16.46,-22.04 l 24.07,-165.84 -79.91,-16.17" /><path
         id="path312"
         style="fill:#7397c8;fill-opacity:1;fill-rule:nonzero;stroke:none"
         d="m 4638.77,1567.61 h -164.4 c -5.78,11.48 -11.8,22.97 -18.06,34.46 h 93.52 v 83.74 c 14.11,12.59 34.75,27.16 63.45,38.98 l -6.13,14.88 c -24.13,-9.94 -42.96,-21.64 -57.32,-32.79 v 41.45 h -48.12 c 61.15,16.99 122.27,42.21 175.79,67.76 l 14.31,-98.62 h -19.99 c -6.6,0 -11.96,-5.35 -11.96,-11.96 0,-6.6 5.36,-11.96 11.96,-11.96 h 27.45 c 3.55,-3.5 8.42,-5.61 13.64,-5.61 0.93,0 1.88,0.07 2.82,0.2 l 37.27,5.41 h 108.26 c 6.6,0 11.96,5.36 11.96,11.96 0,1.91 -0.44,3.71 -1.24,5.31 l 87.8,12.75 v -53.45 c -27.9,-4.26 -59.33,-8.91 -90.86,-13.5 -2.07,1.73 -4.75,2.77 -7.66,2.77 h -189.44 c -6.6,0 -11.96,-5.35 -11.96,-11.95 0,-6.6 5.36,-11.96 11.96,-11.96 h 49.41 c -27.71,-3.9 -45.36,-6.36 -45.36,-6.36 -13.74,-18.7 -26,-39.34 -37.1,-61.51 m -105.04,50.56 h -86.36 c -1.18,2.1 -2.36,4.17 -3.56,6.26 v 107.8 h 89.92 v -39.25 c -7.67,-7.36 -13.21,-13.94 -16.95,-18.87 l -22.02,24.58 -11.99,-10.76 36.33,-40.49 5.54,9.7 c 0.07,0.14 2.88,4.94 9.09,12.26 v -51.23 m -106.02,33.55 c -15.49,25.49 -32.13,50.81 -49.89,75.79 16.27,0.54 32.97,2.18 49.89,4.72 v -80.51 m 122.12,416.26 V 2134 c 5.69,5.08 12.45,10.48 20.37,15.89 -4.48,-28.34 -8.65,-55.2 -11.77,-80.16 l 79.91,16.17 v -0.01 l -88.51,-17.91 m 0,87.08 v 41.46 h -28.71 c 20.38,30.37 40.26,63.64 55.38,100.4 h 14.5 c -4.73,-43.73 -11.19,-86.02 -17.45,-125.75 -8.98,-5.33 -16.86,-10.78 -23.72,-16.11" /><path
         id="path314"
         style="fill:#b8ceee;fill-opacity:1;fill-rule:nonzero;stroke:none"
         d="m 4712.91,1687.94 c -5.22,0 -10.09,2.11 -13.64,5.61 H 4753 l -37.27,-5.41 c -0.94,-0.13 -1.89,-0.2 -2.82,-0.2 m 159.07,22.88 c -1.96,3.94 -6.03,6.65 -10.72,6.65 h -169.45 l -14.31,98.62 c 31.22,14.91 59.84,29.92 84.41,43.49 h 99.35 c 6.6,0 11.96,5.35 11.96,11.95 0,6.61 -5.36,11.97 -11.96,11.97 h -57.48 c 28.47,16.82 45.32,27.98 45.32,27.98 0.35,2.07 0.68,4.12 1,6.17 h 11.16 c 6.6,0 11.96,5.35 11.96,11.96 0,6.6 -5.36,11.95 -11.96,11.95 h -8.2 c 0.43,4.62 0.77,9.16 1.02,13.59 l 69.58,27.44 c 3.87,0.07 7.73,0.09 11.6,0.09 4.44,0 8.88,-0.03 13.31,-0.06 3.75,-0.03 7.49,-0.06 11.21,-0.07 v -258.98 l -87.8,-12.75 m -233.64,375.07 v 0.01 l -24.07,165.84 c -1.55,10.63 5.83,20.5 16.46,22.04 l 159.46,23.14 h 131.33 c 21.13,0 38.26,-17.12 38.26,-38.24 v -69.56 c -6.11,3.32 -12.03,4.78 -17.73,4.78 -43.13,0 -73.41,-83.83 -73.41,-83.83 l -6.45,-2.52 c -0.31,0.03 -0.62,0.04 -0.93,0.04 h -40.7 c -5.69,8.87 -9.78,13.21 -9.78,13.21 l -65.27,-13.21 h -73.69 c -6.6,0 -11.96,-5.35 -11.96,-11.97 0,-1.83 0.42,-3.58 1.16,-5.13 l -22.68,-4.6 m 33.48,79.76 c -6.6,0 -11.96,-5.35 -11.96,-11.95 0,-6.6 5.36,-11.95 11.96,-11.95 h 189.44 c 6.6,0 11.96,5.35 11.96,11.95 0,6.6 -5.36,11.95 -11.96,11.95 h -189.44" /><path
         id="path316"
         style="fill:#7496cf;fill-opacity:1;fill-rule:nonzero;stroke:none"
         d="m 4854.08,1955.15 c 3.34,58.81 -8.56,101.31 -20.72,128.52 h 27.9 c 6.6,0 11.96,5.35 11.96,11.95 0,6.3 -4.86,11.46 -11.03,11.93 l 6.45,2.52 c 0,0 30.28,83.83 73.41,83.83 5.7,0 11.62,-1.46 17.73,-4.78 v -206.57 c -3.72,0.01 -7.46,0.04 -11.21,0.07 -4.43,0.03 -8.87,0.06 -13.31,0.06 -3.87,0 -7.73,-0.02 -11.6,-0.09 l -69.58,-27.44" /><path
         id="path318"
         style="fill:#7397c8;fill-opacity:1;fill-rule:nonzero;stroke:none"
         d="m 4426.57,2043.03 c 0.56,2.39 1.22,4.8 1.99,7.23 h 33.76 l -35.75,-7.23" /><path
         id="path320"
         style="fill:#93afdb;fill-opacity:1;fill-rule:nonzero;stroke:none"
         d="m 4377.82,1727.51 c -0.36,0.51 -0.73,1.03 -1.09,1.54 v 563.18 c 0,1.59 0.12,3.16 0.36,4.69 h 199.41 c -15.12,-36.76 -35,-70.03 -55.38,-100.4 h -93.41 v -146.26 h 0.85 c -0.77,-2.43 -1.43,-4.84 -1.99,-7.23 l 35.75,7.23 h 87.51 v 17.72 l 88.51,17.91 22.68,4.6 c 1.92,-4.03 6.04,-6.82 10.8,-6.82 h 161.54 c 12.16,-27.21 24.06,-69.71 20.72,-128.52 -0.25,-4.43 -0.59,-8.97 -1.02,-13.59 h -181.24 c -6.6,0 -11.96,-5.35 -11.96,-11.95 0,-6.61 5.36,-11.96 11.96,-11.96 h 178.28 c -0.32,-2.05 -0.65,-4.1 -1,-6.17 0,0 -16.85,-11.16 -45.32,-27.98 h -131.96 c -6.6,0 -11.96,-5.36 -11.96,-11.97 0,-6.6 5.36,-11.95 11.96,-11.95 h 90.09 c -24.57,-13.57 -53.19,-28.58 -84.41,-43.49 -53.52,-25.55 -114.64,-50.77 -175.79,-67.76 h -74 v -16.1 c -16.92,-2.54 -33.62,-4.18 -49.89,-4.72 m 49.89,244.92 v -146.26 h 122.12 v 83.73 c 14.11,12.59 34.75,27.16 63.45,38.99 l -6.13,14.87 c -24.13,-9.93 -42.96,-21.63 -57.32,-32.79 v 41.46 h -122.12 m 106.02,-130.16 h -89.92 v 114.06 h 89.92 v -39.25 c -7.67,-7.37 -13.21,-13.95 -16.95,-18.88 l -22.02,24.58 -11.99,-10.75 36.33,-40.5 5.54,9.71 c 0.07,0.14 2.88,4.94 9.09,12.26 v -51.23 m 286.83,265.32 h -75.05 l 65.27,13.21 c 0,0 4.09,-4.34 9.78,-13.21" /><g
         id="g322"><g
           clip-path="url(#clipPath328)"
           id="g324"><path
             id="path336"
             style="fill:url(#linearGradient334);fill-opacity:1;fill-rule:nonzero;stroke:none"
             d="m 4474.37,1567.61 h -67.46 c -16.65,0 -30.18,13.54 -30.18,30.19 v 131.25 c 0.36,-0.51 0.73,-1.03 1.09,-1.54 17.76,-24.98 34.4,-50.3 49.89,-75.79 v -49.65 h 28.6 c 6.26,-11.49 12.28,-22.98 18.06,-34.46 m -27,50.56 h -3.56 v 6.26 c 1.2,-2.09 2.38,-4.16 3.56,-6.26" /></g></g><path
         id="path338"
         style="fill:#7397c8;fill-opacity:1;fill-rule:nonzero;stroke:none"
         d="m 4533.73,2066.37 h -89.92 v 17.33 c 16.36,28.69 41.12,60.57 66.29,96.72 h 23.63 v -39.25 c -7.67,-7.37 -13.21,-13.95 -16.95,-18.87 l -22.02,24.57 -11.99,-10.75 36.33,-40.5 5.54,9.71 c 0.07,0.14 2.88,4.94 9.09,12.26 v -51.22" /><path
         id="path340"
         style="fill:#93afdb;fill-opacity:1;fill-rule:nonzero;stroke:none"
         d="m 4443.81,2083.7 v 96.72 h 66.29 c -25.17,-36.15 -49.93,-68.03 -66.29,-96.72" /><path
         id="path342"
         style="fill:#4f7eb7;fill-opacity:1;fill-rule:nonzero;stroke:none"
         d="m 4406.91,2322.42 c -16.65,0 -30.18,-13.54 -30.18,-30.19 V 1597.8 c 0,-16.65 13.53,-30.19 30.18,-30.19 h 549.51 c 16.66,0 30.19,13.54 30.19,30.19 v 694.43 c 0,16.65 -13.53,30.19 -30.19,30.19 h -549.51 m 549.51,-770.92 h -549.51 c -25.51,0 -46.29,20.78 -46.29,46.3 v 694.43 c 0,25.51 20.78,46.3 46.29,46.3 h 549.51 c 25.52,0 46.3,-20.79 46.3,-46.3 V 1597.8 c 0,-25.52 -20.78,-46.3 -46.3,-46.3" /><path
         id="path344"
         style="fill:#335498;fill-opacity:1;fill-rule:nonzero;stroke:none"
         d="m 4462.32,2050.26 h -33.76 c 3.34,10.67 8.6,21.8 15.25,33.44 v -17.33 h 89.92 v 51.22 c 3.94,4.64 9.25,10.29 16.1,16.41 v -66.02 l -87.51,-17.72 m 71.41,90.91 v 39.25 h -23.63 c 3.67,5.28 7.35,10.64 11.02,16.1 h 28.71 v -41.46 c -6.17,-4.79 -11.51,-9.48 -16.1,-13.89" /><path
         id="path346"
         style="fill:#476ab1;fill-opacity:1;fill-rule:nonzero;stroke:none"
         d="m 4549.83,2050.26 h -87.51 l 87.51,17.72 v -17.72 m -121.27,0 h -0.85 v 146.26 h 93.41 c -3.67,-5.46 -7.35,-10.82 -11.02,-16.1 h -66.29 v -96.72 c -6.65,-11.64 -11.91,-22.77 -15.25,-33.44" /><path
         id="path348"
         style="fill:#80678a;fill-opacity:1;fill-rule:nonzero;stroke:none"
         d="m 4570.2,2149.89 c 1.1,7.01 2.22,14.1 3.35,21.28 9.83,5.82 20.99,11.5 33.6,16.69 l 6.13,-14.88 c -17.12,-7.05 -31.38,-15.08 -43.08,-23.09" /><path
         id="path350"
         style="fill:#6a5c7e;fill-opacity:1;fill-rule:nonzero;stroke:none"
         d="m 4519.1,2095.62 -36.33,40.5 11.99,10.75 22.02,-24.57 c 3.74,4.92 9.28,11.5 16.95,18.87 4.59,4.41 9.93,9.1 16.1,13.89 6.86,5.33 14.74,10.78 23.72,16.11 -1.13,-7.18 -2.25,-14.27 -3.35,-21.28 -7.92,-5.41 -14.68,-10.81 -20.37,-15.89 -6.85,-6.12 -12.16,-11.77 -16.1,-16.41 -6.21,-7.32 -9.02,-12.12 -9.09,-12.26 l -5.54,-9.71" /><path
         id="path352"
         style="fill:#6f98dd;fill-opacity:1;fill-rule:nonzero;stroke:none"
         d="m 4861.26,2141.75 h -189.44 c -6.6,0 -11.96,5.35 -11.96,11.95 0,6.6 5.36,11.95 11.96,11.95 h 189.44 c 6.6,0 11.96,-5.35 11.96,-11.95 0,-6.6 -5.36,-11.95 -11.96,-11.95" /><path
         id="path354"
         style="fill:#6f98dd;fill-opacity:1;fill-rule:nonzero;stroke:none"
         d="m 4828.23,2094.3 c -2.71,5.21 -5.33,9.63 -7.67,13.29 h 40.7 c 0.31,0 0.62,-0.01 0.93,-0.04 l -33.96,-13.25" /><path
         id="path356"
         style="fill:#466fc0;fill-opacity:1;fill-rule:nonzero;stroke:none"
         d="m 4861.26,2083.67 h -27.9 c -1.72,3.85 -3.44,7.39 -5.13,10.63 l 33.96,13.25 c 6.17,-0.47 11.03,-5.63 11.03,-11.93 0,-6.6 -5.36,-11.95 -11.96,-11.95" /><path
         id="path358"
         style="fill:#6f98dd;fill-opacity:1;fill-rule:nonzero;stroke:none"
         d="m 4661.02,2090.49 c -0.74,1.55 -1.16,3.3 -1.16,5.13 0,6.62 5.36,11.97 11.96,11.97 h 73.69 l -84.49,-17.1" /><path
         id="path360"
         style="fill:#5981cc;fill-opacity:1;fill-rule:nonzero;stroke:none"
         d="m 4833.36,2083.67 h -161.54 c -4.76,0 -8.88,2.79 -10.8,6.82 l 84.49,17.1 h 75.05 c 2.34,-3.66 4.96,-8.08 7.67,-13.29 1.69,-3.24 3.41,-6.78 5.13,-10.63" /><path
         id="path362"
         style="fill:#476ab1;fill-opacity:1;fill-rule:nonzero;stroke:none"
         d="m 4549.83,1826.17 h -122.12 v 146.26 h 122.12 v -41.46 c -6.17,-4.79 -11.51,-9.49 -16.1,-13.89 v 39.25 h -89.92 v -114.06 h 89.92 v 51.23 c 3.94,4.63 9.25,10.28 16.1,16.4 v -83.73" /><path
         id="path364"
         style="fill:#876a8a;fill-opacity:1;fill-rule:nonzero;stroke:none"
         d="m 4519.1,1871.53 -36.33,40.5 11.99,10.75 22.02,-24.58 c 3.74,4.93 9.28,11.51 16.95,18.88 4.59,4.4 9.93,9.1 16.1,13.89 14.36,11.16 33.19,22.86 57.32,32.79 l 6.13,-14.87 c -28.7,-11.83 -49.34,-26.4 -63.45,-38.99 -6.85,-6.12 -12.16,-11.77 -16.1,-16.4 -6.21,-7.32 -9.02,-12.12 -9.09,-12.26 l -5.54,-9.71" /><path
         id="path366"
         style="fill:#6f98dd;fill-opacity:1;fill-rule:nonzero;stroke:none"
         d="m 4861.26,1917.65 h -11.16 c 1.27,8.23 2.24,16.2 2.96,23.91 h 8.2 c 6.6,0 11.96,-5.35 11.96,-11.95 0,-6.61 -5.36,-11.96 -11.96,-11.96" /><path
         id="path368"
         style="fill:#5981cc;fill-opacity:1;fill-rule:nonzero;stroke:none"
         d="m 4850.1,1917.65 h -178.28 c -6.6,0 -11.96,5.35 -11.96,11.96 0,6.6 5.36,11.95 11.96,11.95 h 181.24 c -0.72,-7.71 -1.69,-15.68 -2.96,-23.91" /><path
         id="path370"
         style="fill:#6f98dd;fill-opacity:1;fill-rule:nonzero;stroke:none"
         d="m 4861.26,1859.58 h -99.35 c 15.76,8.7 29.85,16.82 41.87,23.92 h 57.48 c 6.6,0 11.96,-5.36 11.96,-11.97 0,-6.6 -5.36,-11.95 -11.96,-11.95" /><path
         id="path372"
         style="fill:#5981cc;fill-opacity:1;fill-rule:nonzero;stroke:none"
         d="m 4761.91,1859.58 h -90.09 c -6.6,0 -11.96,5.35 -11.96,11.95 0,6.61 5.36,11.97 11.96,11.97 h 131.96 c -12.02,-7.1 -26.11,-15.22 -41.87,-23.92" /><path
         id="path374"
         style="fill:#335498;fill-opacity:1;fill-rule:nonzero;stroke:none"
         d="m 4549.83,1602.07 h -93.52 c -2.93,5.37 -5.91,10.74 -8.94,16.1 h 86.36 v 51.23 c 3.94,4.63 9.25,10.29 16.1,16.41 v -83.74 m -106.02,22.36 c -5.22,9.11 -10.59,18.22 -16.1,27.29 v 80.51 c 24.34,3.66 49.17,9.2 74,16.1 h 48.12 v -41.45 c -6.17,-4.79 -11.51,-9.49 -16.1,-13.9 v 39.25 h -89.92 v -107.8" /><path
         id="path376"
         style="fill:#476ab1;fill-opacity:1;fill-rule:nonzero;stroke:none"
         d="m 4427.71,1732.23 v 16.1 h 74 c -24.83,-6.9 -49.66,-12.44 -74,-16.1" /><g
         id="g378"><g
           clip-path="url(#clipPath384)"
           id="g380"><path
             id="path392"
             style="fill:url(#linearGradient390);fill-opacity:1;fill-rule:nonzero;stroke:none"
             d="m 4456.31,1602.07 h -28.6 v 49.65 c 5.51,-9.07 10.88,-18.18 16.1,-27.29 v -6.26 h 3.56 c 3.03,-5.36 6.01,-10.73 8.94,-16.1" /></g></g><path
         id="path394"
         style="fill:#6a5c7e;fill-opacity:1;fill-rule:nonzero;stroke:none"
         d="m 4519.1,1647.44 -36.33,40.49 11.99,10.76 22.02,-24.58 c 3.74,4.93 9.28,11.51 16.95,18.87 4.59,4.41 9.93,9.11 16.1,13.9 14.36,11.15 33.19,22.85 57.32,32.79 l 6.13,-14.88 c -28.7,-11.82 -49.34,-26.39 -63.45,-38.98 -6.85,-6.12 -12.16,-11.78 -16.1,-16.41 -6.21,-7.32 -9.02,-12.12 -9.09,-12.26 l -5.54,-9.7" /><path
         id="path396"
         style="fill:#456fba;fill-opacity:1;fill-rule:nonzero;stroke:none"
         d="M 4861.26,1693.55 H 4753 l 118.98,17.27 c 0.8,-1.6 1.24,-3.4 1.24,-5.31 0,-6.6 -5.36,-11.96 -11.96,-11.96 m -161.99,0 h -27.45 c -6.6,0 -11.96,5.36 -11.96,11.96 0,6.61 5.36,11.96 11.96,11.96 h 19.99 l 1.87,-12.86 c 0.63,-4.37 2.67,-8.18 5.59,-11.06" /><path
         id="path398"
         style="fill:#6f98dd;fill-opacity:1;fill-rule:nonzero;stroke:none"
         d="m 4753,1693.55 h -53.73 c -2.92,2.88 -4.96,6.69 -5.59,11.06 l -1.87,12.86 h 169.45 c 4.69,0 8.76,-2.71 10.72,-6.65 L 4753,1693.55" /><path
         id="path400"
         style="fill:#557dcc;fill-opacity:1;fill-rule:nonzero;stroke:none"
         d="m 4861.26,1635.48 h -140.03 c 37.22,5.24 92.6,13.1 147.69,21.14 2.63,-2.2 4.3,-5.49 4.3,-9.18 0,-6.6 -5.36,-11.96 -11.96,-11.96" /><path
         id="path402"
         style="fill:#456fba;fill-opacity:1;fill-rule:nonzero;stroke:none"
         d="m 4721.23,1635.48 h -49.41 c -6.6,0 -11.96,5.36 -11.96,11.96 0,6.6 5.36,11.95 11.96,11.95 h 189.44 c 2.91,0 5.59,-1.04 7.66,-2.77 -55.09,-8.04 -110.47,-15.9 -147.69,-21.14" /><path
         id="path404"
         style="fill:#c2d7f4;fill-opacity:1;fill-rule:nonzero;stroke:none"
         d="m 6851.89,2587.94 h -549.5 c -21.11,0 -38.24,17.12 -38.24,38.24 v 5.05 c 8.85,20.88 13.42,33.04 13.42,33.04 -3.42,11.81 -7.99,22.52 -13.42,32.22 v 9.74 l 18.84,42.58 c 0,0 47.18,19.53 81.53,50.96 2.54,-0.75 5.22,-1.16 8,-1.16 15.57,0 28.18,12.62 28.18,28.19 0,2.85 -0.42,5.61 -1.21,8.21 21.49,16.89 37.65,35.24 29.72,42.56 -6.53,6.03 -11.94,7.9 -16.13,7.9 -6.86,0 -10.47,-5 -10.47,-5 0,0 20.14,33.92 0,44.75 -4.78,2.57 -9.03,3.58 -12.76,3.58 -0.27,0 -0.52,-0.01 -0.78,-0.02 7.05,5.12 11.63,13.43 11.63,22.81 0,15.56 -12.61,28.18 -28.18,28.18 -14.88,0 -27.07,-11.54 -28.1,-26.17 -1.45,-0.38 -2.82,-0.79 -4.09,-1.2 -2.72,1.76 -5.39,3.31 -8,4.67 0.25,7.1 -1.06,16.33 -9.6,16.33 -4,0 -9.59,-2.03 -17.34,-7.24 -4.08,0.62 -7.65,0.83 -10.59,0.83 -5.77,0 -9.13,-0.8 -9.13,-0.8 0,0 96.14,64.83 109.67,98.83 12.25,-5.62 25.89,-8.76 40.26,-8.76 53.36,0 96.61,43.25 96.61,96.61 0,1.82 -0.05,3.63 -0.15,5.42 l 52.48,-5.42 c 28.19,57.03 0,112.72 -59.04,127.48 l -29.32,-52.22 c -16.57,13.36 -37.64,21.36 -60.58,21.36 -53.36,0 -96.63,-43.26 -96.63,-96.62 0,-28.46 12.32,-54.05 31.9,-71.73 -26.89,-6.39 -69.86,-30.39 -106.72,-57.14 v 296.61 c 0,21.12 17.13,38.24 38.24,38.24 h 549.5 c 21.13,0 38.26,-17.12 38.26,-38.24 v -694.43 c 0,-21.12 -17.13,-38.24 -38.26,-38.24 m -308.95,140.23 c -15.56,0 -28.17,-12.62 -28.17,-28.19 0,-15.56 12.61,-28.17 28.17,-28.17 h 225.44 c 15.57,0 28.18,12.61 28.18,28.17 0,15.57 -12.61,28.19 -28.18,28.19 h -225.44 m -170.42,0 c -15.56,0 -28.18,-12.62 -28.18,-28.19 0,-15.56 12.62,-28.17 28.18,-28.17 15.57,0 28.18,12.61 28.18,28.17 0,15.57 -12.61,28.19 -28.18,28.19 m 170.42,126.81 c -15.56,0 -28.17,-12.62 -28.17,-28.18 0,-15.57 12.61,-28.19 28.17,-28.19 h 225.44 c 15.57,0 28.18,12.62 28.18,28.19 0,15.56 -12.61,28.18 -28.18,28.18 h -225.44 m 0,124.79 c -15.56,0 -28.17,-12.62 -28.17,-28.18 0,-15.56 12.61,-28.18 28.17,-28.18 h 225.44 c 15.57,0 28.18,12.62 28.18,28.18 0,15.56 -12.61,28.18 -28.18,28.18 h -225.44 m -169.28,-58.58 c -0.2,0.26 -0.41,0.51 -0.61,0.77 0.23,0.47 0.46,0.97 0.69,1.48 0.85,0.03 1.69,0.11 2.52,0.22 -0.98,-0.81 -1.84,-1.66 -2.6,-2.47" /><path
         id="path406"
         style="fill:#5c83b7;fill-opacity:1;fill-rule:nonzero;stroke:none"
         d="m 6264.15,2706.23 v 161.81 c 13.09,4.88 26.56,16.04 26.56,16.04 0,0 -31.3,-47.64 -7.04,-59.92 3.15,-1.59 6.52,-2.28 10,-2.28 23.37,0 51.82,31.16 51.82,31.16 0,0 -31.3,-43.31 -13.3,-51.26 0.99,-0.43 2.21,-0.64 3.64,-0.64 4.28,0 10.4,1.86 17.5,5.02 3.15,-2.93 6.96,-5.14 11.19,-6.39 -34.35,-31.43 -81.53,-50.96 -81.53,-50.96 l -18.84,-42.58 m 106.39,210.94 c 0.62,1.08 1.53,2.74 2.51,4.79 0.2,-0.26 0.41,-0.51 0.61,-0.77 -1.43,-1.55 -2.47,-3.02 -3.12,-4.02 m -106.39,3.39 V 3024 c 36.86,26.75 79.83,50.75 106.72,57.14 7.25,-6.54 15.49,-12 24.47,-16.12 -13.53,-34 -109.67,-98.83 -109.67,-98.83 0,0 3.36,0.8 9.13,0.8 2.94,0 6.51,-0.21 10.59,-0.83 -1.22,-0.82 -2.48,-1.71 -3.8,-2.69 0,0 -20.36,-20.7 -37.44,-42.91 m 67.26,28.48 c 0,0 0.76,3.6 0.92,8.03 2.61,-1.36 5.28,-2.91 8,-4.67 -5.28,-1.68 -8.92,-3.36 -8.92,-3.36" /><path
         id="path408"
         style="fill:#7496cf;fill-opacity:1;fill-rule:nonzero;stroke:none"
         d="m 6335.83,2801.14 c -1.43,0 -2.65,0.21 -3.64,0.64 -18,7.95 13.3,51.26 13.3,51.26 0,0 -28.45,-31.16 -51.82,-31.16 -3.48,0 -6.85,0.69 -10,2.28 -24.26,12.28 7.04,59.92 7.04,59.92 0,0 -13.47,-11.16 -26.56,-16.04 v 52.52 c 17.08,22.21 37.44,42.91 37.44,42.91 1.32,0.98 2.58,1.87 3.8,2.69 7.75,5.21 13.34,7.24 17.34,7.24 8.54,0 9.85,-9.23 9.6,-16.33 -0.16,-4.43 -0.92,-8.03 -0.92,-8.03 0,0 3.64,1.68 8.92,3.36 1.27,0.41 2.64,0.82 4.09,1.2 -0.05,-0.66 -0.08,-1.33 -0.08,-2.01 0,-15.56 12.62,-28.18 28.18,-28.18 0.41,0 0.81,0.01 1.22,0.03 -0.23,-0.51 -0.46,-1.01 -0.69,-1.48 -0.98,-2.05 -1.89,-3.71 -2.51,-4.79 0.65,1 1.69,2.47 3.12,4.02 0.76,0.81 1.62,1.66 2.6,2.47 4.74,0.63 9.12,2.44 12.81,5.12 0.26,0.01 0.51,0.02 0.78,0.02 3.73,0 7.98,-1.01 12.76,-3.58 20.14,-10.83 0,-44.75 0,-44.75 0,0 3.61,5 10.47,5 4.19,0 9.6,-1.87 16.13,-7.9 7.93,-7.32 -8.23,-25.67 -29.72,-42.56 -3.52,11.56 -14.26,19.97 -26.97,19.97 -15.56,0 -28.18,-12.62 -28.18,-28.18 0,-8.15 3.46,-15.49 8.99,-20.64 -7.1,-3.16 -13.22,-5.02 -17.5,-5.02" /><path
         id="path410"
         style="fill:#8caadb;fill-opacity:1;fill-rule:nonzero;stroke:none"
         d="m 6264.15,2631.23 v 65.26 c 5.43,-9.7 10,-20.41 13.42,-32.22 0,0 -4.57,-12.16 -13.42,-33.04" /><path
         id="path412"
         style="fill:#4f7eb7;fill-opacity:1;fill-rule:nonzero;stroke:none"
         d="m 6350.71,3394.72 c -16.65,0 -30.19,-13.55 -30.19,-30.19 V 2670.1 c 0,-16.64 13.54,-30.19 30.19,-30.19 h 549.5 c 16.66,0 30.19,13.55 30.19,30.19 v 694.43 c 0,16.64 -13.53,30.19 -30.19,30.19 z m 549.5,-770.91 h -549.5 c -25.52,0 -46.3,20.77 -46.3,46.29 v 694.43 c 0,25.53 20.78,46.3 46.3,46.3 h 549.5 c 25.52,0 46.29,-20.77 46.29,-46.3 V 2670.1 c 0,-25.52 -20.77,-46.29 -46.29,-46.29" /><path
         id="path414"
         style="fill:#90b1e1;fill-opacity:1;fill-rule:nonzero;stroke:none"
         d="m 6435.6,3056.26 c -14.37,0 -28.01,3.14 -40.26,8.76 1.89,4.74 2.17,8.88 0.36,12.16 -2.12,3.87 -6.53,5.61 -12.66,5.61 -3.53,0 -7.61,-0.57 -12.17,-1.65 -19.58,17.68 -31.9,43.27 -31.9,71.73 0,53.36 43.27,96.62 96.63,96.62 22.94,0 44.01,-8 60.58,-21.36 l -35.1,-62.51 70.98,-7.33 c 0.1,-1.79 0.15,-3.6 0.15,-5.42 0,-53.36 -43.25,-96.61 -96.61,-96.61" /><path
         id="path416"
         style="fill:#446ca9;fill-opacity:1;fill-rule:nonzero;stroke:none"
         d="m 6395.34,3065.02 c -8.98,4.12 -17.22,9.58 -24.47,16.12 4.56,1.08 8.64,1.65 12.17,1.65 6.13,0 10.54,-1.74 12.66,-5.61 1.81,-3.28 1.53,-7.42 -0.36,-12.16" /><path
         id="path418"
         style="fill:#a482a0;fill-opacity:1;fill-rule:nonzero;stroke:none"
         d="m 6584.54,3152.87 -52.48,5.42 c -1.56,28.21 -15.22,53.19 -35.88,69.84 l 29.32,52.22 c 59.04,-14.76 87.23,-70.45 59.04,-127.48" /><path
         id="path420"
         style="fill:#8c7d9c;fill-opacity:1;fill-rule:nonzero;stroke:none"
         d="m 6532.06,3158.29 -70.98,7.33 35.1,62.51 c 20.66,-16.65 34.32,-41.63 35.88,-69.84" /><path
         id="path422"
         style="fill:#9bbbeb;fill-opacity:1;fill-rule:nonzero;stroke:none"
         d="m 6373.74,2923.44 c 3.82,8.48 7.84,21.88 -0.86,28.49 -3.73,2.83 -8.62,3.85 -13.73,3.85 -5,0 -10.2,-0.97 -14.73,-2.18 1.03,14.63 13.22,26.17 28.1,26.17 15.57,0 28.18,-12.62 28.18,-28.18 0,-9.38 -4.58,-17.69 -11.63,-22.81 -5.4,-0.2 -9.67,-2.51 -12.81,-5.12 -0.83,-0.11 -1.67,-0.19 -2.52,-0.22" /><path
         id="path424"
         style="fill:#5d82c7;fill-opacity:1;fill-rule:nonzero;stroke:none"
         d="m 6372.52,2923.41 c -15.56,0 -28.18,12.62 -28.18,28.18 0,0.68 0.03,1.35 0.08,2.01 4.53,1.21 9.73,2.18 14.73,2.18 5.11,0 10,-1.02 13.73,-3.85 8.7,-6.61 4.68,-20.01 0.86,-28.49 -0.41,-0.02 -0.81,-0.03 -1.22,-0.03 m 3.74,0.25 c 3.14,2.61 7.41,4.92 12.81,5.12 -3.69,-2.68 -8.07,-4.49 -12.81,-5.12" /><path
         id="path426"
         style="fill:#9bbbeb;fill-opacity:1;fill-rule:nonzero;stroke:none"
         d="m 6372.52,2798.61 c -2.78,0 -5.46,0.41 -8,1.16 8.75,8 16.66,16.77 22.75,26.2 4.17,2.91 8.29,5.95 12.22,9.04 0.79,-2.6 1.21,-5.36 1.21,-8.21 0,-15.57 -12.61,-28.19 -28.18,-28.19" /><path
         id="path428"
         style="fill:#4a72b0;fill-opacity:1;fill-rule:nonzero;stroke:none"
         d="m 6364.52,2799.77 c -4.23,1.25 -8.04,3.46 -11.19,6.39 10.14,4.51 22.29,11.67 33.94,19.81 -6.09,-9.43 -14,-18.2 -22.75,-26.2" /><path
         id="path430"
         style="fill:#5d82c7;fill-opacity:1;fill-rule:nonzero;stroke:none"
         d="m 6353.33,2806.16 c -5.53,5.15 -8.99,12.49 -8.99,20.64 0,15.56 12.62,28.18 28.18,28.18 12.71,0 23.45,-8.41 26.97,-19.97 -3.93,-3.09 -8.05,-6.13 -12.22,-9.04 -11.65,-8.14 -23.8,-15.3 -33.94,-19.81" /><path
         id="path432"
         style="fill:#9bbbeb;fill-opacity:1;fill-rule:nonzero;stroke:none"
         d="m 6768.38,2923.41 h -225.44 c -15.56,0 -28.17,12.62 -28.17,28.18 0,15.56 12.61,28.18 28.17,28.18 h 225.44 c 15.57,0 28.18,-12.62 28.18,-28.18 0,-15.56 -12.61,-28.18 -28.18,-28.18" /><path
         id="path434"
         style="fill:#9bbbeb;fill-opacity:1;fill-rule:nonzero;stroke:none"
         d="m 6768.38,2798.61 h -225.44 c -15.56,0 -28.17,12.62 -28.17,28.19 0,15.56 12.61,28.18 28.17,28.18 h 225.44 c 15.57,0 28.18,-12.62 28.18,-28.18 0,-15.57 -12.61,-28.19 -28.18,-28.19" /><path
         id="path436"
         style="fill:#9bbbeb;fill-opacity:1;fill-rule:nonzero;stroke:none"
         d="m 6372.52,2671.81 c -15.56,0 -28.18,12.61 -28.18,28.17 0,15.57 12.62,28.19 28.18,28.19 15.57,0 28.18,-12.62 28.18,-28.19 0,-15.56 -12.61,-28.17 -28.18,-28.17" /><path
         id="path438"
         style="fill:#9bbbeb;fill-opacity:1;fill-rule:nonzero;stroke:none"
         d="m 6768.38,2671.81 h -225.44 c -15.56,0 -28.17,12.61 -28.17,28.17 0,15.57 12.61,28.19 28.17,28.19 h 225.44 c 15.57,0 28.18,-12.62 28.18,-28.19 0,-15.56 -12.61,-28.17 -28.18,-28.17" /><path
         id="path440"
         style="fill:#c2d7f4;fill-opacity:1;fill-rule:nonzero;stroke:none"
         d="m 2152.06,2814.16 h -549.51 c -21.12,0 -38.24,17.12 -38.24,38.25 v 823.24 c 0,21.12 17.12,38.25 38.24,38.25 h 549.51 c 21.12,0 38.24,-17.13 38.24,-38.25 v -823.24 c 0,-21.13 -17.12,-38.25 -38.24,-38.25" /><path
         id="path442"
         style="fill:#4f7eb7;fill-opacity:1;fill-rule:nonzero;stroke:none"
         d="m 1567.67,3740.73 c -16.65,0 -30.19,-13.55 -30.19,-30.19 v -823.25 c 0,-16.65 13.54,-30.19 30.19,-30.19 h 549.5 c 16.64,0 30.19,13.54 30.19,30.19 v 823.25 c 0,16.64 -13.55,30.19 -30.19,30.19 z M 2117.17,2841 h -549.5 c -25.53,0 -46.3,20.76 -46.3,46.29 v 823.25 c 0,25.53 20.77,46.29 46.3,46.29 h 549.5 c 25.53,0 46.29,-20.76 46.29,-46.29 v -823.25 c 0,-25.53 -20.76,-46.29 -46.29,-46.29" /><path
         id="path444"
         style="fill:#7ca6d8;fill-opacity:1;fill-rule:nonzero;stroke:none"
         d="m 1847.83,3343.57 -7.86,-6.98 c -4.99,-4.43 -12.62,-3.98 -17.05,1.01 l -80.62,90.77 25.92,23.02 80.61,-90.77 c 4.44,-4.99 3.98,-12.62 -1,-17.05" /><path
         id="path446"
         style="fill:#7ca6d8;fill-opacity:1;fill-rule:nonzero;stroke:none"
         d="m 1714.23,3439.45 c -34.76,0 -63.11,28.19 -63.11,63.1 0,34.91 28.35,63.1 63.11,63.1 34.9,0 63.1,-28.19 63.1,-63.1 0,-34.91 -28.2,-63.1 -63.1,-63.1 z m 0,155.69 c -51.05,0 -92.59,-41.39 -92.59,-92.59 0,-51.21 41.54,-92.59 92.59,-92.59 51.2,0 92.59,41.38 92.59,92.59 0,51.2 -41.39,92.59 -92.59,92.59" /><path
         id="path448"
         style="fill:#9abced;fill-opacity:1;fill-rule:nonzero;stroke:none"
         d="m 2089.34,3544.15 h -146.27 c -9.26,0 -16.77,7.51 -16.77,16.77 0,9.27 7.51,16.78 16.77,16.78 h 146.27 c 9.26,0 16.77,-7.51 16.77,-16.78 0,-9.26 -7.51,-16.77 -16.77,-16.77" /><path
         id="path450"
         style="fill:#9abced;fill-opacity:1;fill-rule:nonzero;stroke:none"
         d="m 2089.34,3456.92 h -146.27 c -9.26,0 -16.77,7.51 -16.77,16.78 0,9.26 7.51,16.77 16.77,16.77 h 146.27 c 9.26,0 16.77,-7.51 16.77,-16.77 0,-9.27 -7.51,-16.78 -16.77,-16.78" /><path
         id="path452"
         style="fill:#9abced;fill-opacity:1;fill-rule:nonzero;stroke:none"
         d="m 2089.34,3376.41 h -146.27 c -9.26,0 -16.77,7.51 -16.77,16.77 0,9.27 7.51,16.78 16.77,16.78 h 146.27 c 9.26,0 16.77,-7.51 16.77,-16.78 0,-9.26 -7.51,-16.77 -16.77,-16.77" /><path
         id="path454"
         style="fill:#9abced;fill-opacity:1;fill-rule:nonzero;stroke:none"
         d="m 1907.18,3152.32 h -225.44 c -10.56,0 -19.12,8.56 -19.12,19.12 0,10.56 8.56,19.12 19.12,19.12 h 225.44 c 10.55,0 19.12,-8.56 19.12,-19.12 0,-10.56 -8.57,-19.12 -19.12,-19.12" /><path
         id="path456"
         style="fill:#9abced;fill-opacity:1;fill-rule:nonzero;stroke:none"
         d="m 1907.18,3032.55 h -225.44 c -10.56,0 -19.12,8.56 -19.12,19.12 0,10.57 8.56,19.13 19.12,19.13 h 225.44 c 10.55,0 19.12,-8.56 19.12,-19.13 0,-10.56 -8.57,-19.12 -19.12,-19.12" /><path
         id="path458"
         style="fill:#9abced;fill-opacity:1;fill-rule:nonzero;stroke:none"
         d="m 1907.18,2912.79 h -225.44 c -10.56,0 -19.12,8.56 -19.12,19.12 0,10.56 8.56,19.13 19.12,19.13 h 225.44 c 10.55,0 19.12,-8.57 19.12,-19.13 0,-10.56 -8.57,-19.12 -19.12,-19.12" /><path
         id="path460"
         style="fill:#9abced;fill-opacity:1;fill-rule:nonzero;stroke:none"
         d="m 2083.8,3171.44 c 0,-16.95 -13.74,-30.7 -30.69,-30.7 -16.96,0 -30.7,13.75 -30.7,30.7 0,16.95 13.74,30.69 30.7,30.69 16.95,0 30.69,-13.74 30.69,-30.69" /><path
         id="path462"
         style="fill:#9abced;fill-opacity:1;fill-rule:nonzero;stroke:none"
         d="m 2083.8,3051.67 c 0,-16.95 -13.74,-30.69 -30.69,-30.69 -16.96,0 -30.7,13.74 -30.7,30.69 0,16.96 13.74,30.7 30.7,30.7 16.95,0 30.69,-13.74 30.69,-30.7" /><path
         id="path464"
         style="fill:#9abced;fill-opacity:1;fill-rule:nonzero;stroke:none"
         d="m 2083.8,2931.91 c 0,-16.95 -13.74,-30.69 -30.69,-30.69 -16.96,0 -30.7,13.74 -30.7,30.69 0,16.96 13.74,30.7 30.7,30.7 16.95,0 30.69,-13.74 30.69,-30.7" /><path
         id="path466"
         style="fill:#c2d7f4;fill-opacity:1;fill-rule:nonzero;stroke:none"
         d="m 3770.7,2839.22 c -4.2,8.71 -6.55,18.47 -6.55,28.78 v 668.26 c 0,22.83 11.51,42.97 29.05,54.92 -1.44,-5.77 -2.2,-11.81 -2.2,-18.02 v -192.8 c -1.19,-23.38 -1.2,-47.42 0,-72.08 V 2904.9 c 0,-14.21 4,-27.51 10.94,-38.82 -9.11,-9.88 -19.55,-18.8 -31.24,-26.86" /><path
         id="path468"
         style="fill:#aec6ed;fill-opacity:1;fill-rule:nonzero;stroke:none"
         d="M 4836.99,2801.58 H 4432.1 c 0.91,9.53 1.77,19.15 2.59,28.85 h 437.19 c 7.67,0 15.07,1.16 22.03,3.32 -11.62,-19.27 -32.77,-32.17 -56.92,-32.17 m -437.36,0 h -324.58 c 2.61,9.51 5.08,19.14 7.42,28.85 h 319.8 c -0.83,-9.71 -1.71,-19.3 -2.64,-28.85 m -358.13,0 h -210.92 c -26.38,0 -49.16,15.37 -59.88,37.64 11.69,8.06 22.13,16.98 31.24,26.86 13.1,-21.37 36.68,-35.65 63.53,-35.65 h 183.72 c -2.42,-9.7 -5,-19.35 -7.69,-28.85 m -250.5,506.7 c -1.2,24.66 -1.19,48.7 0,72.08 v -72.08" /><path
         id="path470"
         style="fill:#c2d7f4;fill-opacity:1;fill-rule:nonzero;stroke:none"
         d="m 4432.1,2801.58 h -32.47 c 0.93,9.55 1.81,19.14 2.64,28.85 h 32.42 c -0.82,-9.7 -1.68,-19.32 -2.59,-28.85" /><path
         id="path472"
         style="fill:#c2d7f4;fill-opacity:1;fill-rule:nonzero;stroke:none"
         d="m 4075.05,2801.58 h -33.55 c 2.69,9.5 5.27,19.15 7.69,28.85 h 33.28 c -2.34,-9.71 -4.81,-19.34 -7.42,-28.85" /><path
         id="path474"
         style="fill:#c2d7f4;fill-opacity:1;fill-rule:nonzero;stroke:none"
         d="m 3812.97,2879.39 c -3.77,7.71 -5.88,16.37 -5.88,25.51 v 275.79 c 5.73,-28.77 12.96,-58.28 21.72,-88.46 27.88,-95.99 20.04,-164.45 -15.84,-212.84 m -5.88,615.16 v 78.61 c 0,9.91 2.48,19.25 6.85,27.43 5.32,1.37 10.89,2.09 16.64,2.09 H 3845 c -16.05,-33.81 -28.77,-69.89 -37.91,-108.13" /><path
         id="path476"
         style="fill:#aec6ed;fill-opacity:1;fill-rule:nonzero;stroke:none"
         d="M 4871.88,2846.53 H 4436 c 0.95,12.17 1.84,24.47 2.66,36.91 h 215.16 c 13.34,0 24.16,10.81 24.16,24.15 0,13.34 -10.82,24.15 -24.16,24.15 h -212.36 c 1.31,25.81 2.34,52.21 3.1,79.18 h 28.61 c 11.39,0 20.63,9.23 20.63,20.63 v 284.81 c 0,11.4 -9.24,20.63 -20.63,20.63 h -30.28 c -0.15,35.22 0.64,69.45 2.37,102.66 h 19.36 c 16.11,0 29.18,13.07 29.18,29.18 0,16.12 -13.07,29.19 -29.18,29.19 h -15.26 c 3.23,36.18 7.65,71.09 13.28,104.66 h 374.35 c 36.68,0 66.42,-29.73 66.42,-66.42 v -276.45 c -8.03,-27.92 -17.84,-62.11 -46,-87.23 -47.6,-42.47 -72.89,-90.48 -5.7,-212.86 27.77,-50.59 38.95,-82.88 44.49,-107.88 -7.41,-3.41 -15.64,-5.31 -24.32,-5.31 m -273.75,228.8 c -10,0 -18.11,-8.11 -18.11,-18.12 0,-10 8.11,-18.11 18.11,-18.11 h 173.44 c 10,0 18.12,8.11 18.12,18.11 0,10.01 -8.12,18.12 -18.12,18.12 h -173.44 m 0,81.85 c -10,0 -18.11,-8.11 -18.11,-18.11 0,-10.01 8.11,-18.12 18.11,-18.12 h 173.44 c 10,0 18.12,8.11 18.12,18.12 0,10 -8.12,18.11 -18.12,18.11 h -173.44 m 0,81.86 c -10,0 -18.11,-8.11 -18.11,-18.12 0,-10 8.11,-18.11 18.11,-18.11 h 173.44 c 10,0 18.12,8.11 18.12,18.11 0,10.01 -8.12,18.12 -18.12,18.12 h -173.44 m 0,81.85 c -10,0 -18.11,-8.11 -18.11,-18.12 0,-10 8.11,-18.11 18.11,-18.11 h 173.44 c 10,0 18.12,8.11 18.12,18.11 0,10.01 -8.12,18.12 -18.12,18.12 h -173.44 m -2.68,177.13 c -16.12,0 -29.19,-13.07 -29.19,-29.19 0,-16.11 13.07,-29.18 29.19,-29.18 h 165.05 c 16.12,0 29.19,13.07 29.19,29.18 0,16.12 -13.07,29.19 -29.19,29.19 H 4595.45 M 4403.61,2846.53 H 4086.2 c 2.71,12.16 5.21,24.46 7.49,36.91 h 312.63 c -0.84,-12.45 -1.74,-24.71 -2.71,-36.91 m -350.55,0 h -187.59 c -23.05,0 -43.02,13.42 -52.5,32.86 35.88,48.39 43.72,116.85 15.84,212.84 -8.76,30.18 -15.99,59.69 -21.72,88.46 v 313.86 c 9.14,38.24 21.86,74.32 37.91,108.13 h 201.25 c 0.05,-33.93 0.69,-68.8 1.97,-104.66 h -141.16 c -16.11,0 -29.18,-13.07 -29.18,-29.19 0,-16.11 13.07,-29.18 29.18,-29.18 h 143.79 c 1.81,-33.41 4.17,-67.64 7.12,-102.66 h -159.46 c -11.4,0 -20.63,-9.23 -20.63,-20.63 v -284.81 c 0,-11.4 9.23,-20.63 20.63,-20.63 h 178.09 c -1.64,-26.99 -4.28,-53.38 -7.85,-79.18 h -57.02 c -13.34,0 -24.15,-10.81 -24.15,-24.15 0,-13.34 10.81,-24.15 24.15,-24.15 h 49.09 c -2.37,-12.48 -4.95,-24.74 -7.76,-36.91 m 356.11,85.21 h -307.82 c 3.46,25.82 6.01,52.21 7.59,79.18 h 303.37 c -0.77,-26.93 -1.81,-53.32 -3.14,-79.18 m 1.48,405.25 h -320.24 c -2.94,35.04 -5.28,69.25 -7.05,102.66 h 329.6 c -1.7,-33.25 -2.47,-67.48 -2.31,-102.66 m 6.32,161.03 h -336.16 c -1.23,35.85 -1.8,70.75 -1.77,104.66 h 350.89 c -5.49,-33.64 -9.81,-68.54 -12.96,-104.66" /><path
         id="path478"
         style="fill:#c2d7f4;fill-opacity:1;fill-rule:nonzero;stroke:none"
         d="m 4436,2846.53 h -32.39 c 0.97,12.2 1.87,24.46 2.71,36.91 h 32.34 c -0.82,-12.44 -1.71,-24.74 -2.66,-36.91 m 5.46,85.21 h -32.29 c 1.33,25.86 2.37,52.25 3.14,79.18 h 32.25 c -0.76,-26.97 -1.79,-53.37 -3.1,-79.18 m 1.43,405.25 h -32.24 c -0.16,35.18 0.61,69.41 2.31,102.66 h 32.3 c -1.73,-33.21 -2.52,-67.44 -2.37,-102.66 m 6.47,161.03 h -32.39 c 3.15,36.12 7.47,71.02 12.96,104.66 h 32.71 c -5.63,-33.57 -10.05,-68.48 -13.28,-104.66" /><path
         id="path480"
         style="fill:#c2d7f4;fill-opacity:1;fill-rule:nonzero;stroke:none"
         d="m 4086.2,2846.53 h -33.14 c 2.81,12.17 5.39,24.43 7.76,36.91 h 32.87 c -2.28,-12.45 -4.78,-24.75 -7.49,-36.91 m 15.15,85.21 h -32.6 c 3.57,25.8 6.21,52.19 7.85,79.18 h 32.34 c -1.58,-26.97 -4.13,-53.36 -7.59,-79.18 m -10.94,405.25 h -32.44 c -2.95,35.02 -5.31,69.25 -7.12,102.66 h 32.51 c 1.77,-33.41 4.11,-67.62 7.05,-102.66 m -9.6,161.03 h -32.59 c -1.28,35.86 -1.92,70.73 -1.97,104.66 h 32.79 c -0.03,-33.91 0.54,-68.81 1.77,-104.66" /><path
         id="path482"
         style="fill:#476899;fill-opacity:1;fill-rule:nonzero;stroke:none"
         d="m 4896.2,2851.84 c -5.54,25 -16.72,57.29 -44.49,107.88 -67.19,122.38 -41.9,170.39 5.7,212.86 28.16,25.12 37.97,59.31 46,87.23 V 2868 c 0,-4.45 -0.44,-8.8 -1.27,-13 -1.91,-1.16 -3.9,-2.22 -5.94,-3.16" /><path
         id="path484"
         style="fill:#4f7eb7;fill-opacity:1;fill-rule:nonzero;stroke:none"
         d="m 3865.47,3631.53 c -32.19,0 -58.38,-26.18 -58.38,-58.37 V 2904.9 c 0,-32.18 26.19,-58.37 58.38,-58.37 h 1006.41 c 32.19,0 58.37,26.19 58.37,58.37 v 668.26 c 0,32.19 -26.18,58.37 -58.37,58.37 H 3865.47 m 1006.41,-801.1 H 3865.47 c -41.07,0 -74.47,33.41 -74.47,74.47 v 668.26 c 0,41.07 33.4,74.48 74.47,74.48 h 1006.41 c 41.06,0 74.48,-33.41 74.48,-74.48 V 2904.9 c 0,-41.06 -33.42,-74.47 -74.48,-74.47" /><path
         id="path486"
         style="fill:#8bace4;fill-opacity:1;fill-rule:nonzero;stroke:none"
         d="m 4464.62,3439.65 h -19.36 c 1.03,19.82 2.4,39.27 4.1,58.37 h 15.26 c 16.11,0 29.18,-13.07 29.18,-29.19 0,-16.11 -13.07,-29.18 -29.18,-29.18 m -51.66,0 h -329.6 c -1.04,19.75 -1.89,39.18 -2.55,58.37 h 336.16 c -1.66,-19.11 -3,-38.57 -4.01,-58.37 m -362.11,0 h -143.79 c -16.11,0 -29.18,13.07 -29.18,29.18 0,16.12 13.07,29.19 29.18,29.19 h 141.16 c 0.69,-19.18 1.57,-38.63 2.63,-58.37" /><path
         id="path488"
         style="fill:#9bbbeb;fill-opacity:1;fill-rule:nonzero;stroke:none"
         d="m 4445.26,3439.65 h -32.3 c 1.01,19.8 2.35,39.26 4.01,58.37 h 32.39 c -1.7,-19.1 -3.07,-38.55 -4.1,-58.37" /><path
         id="path490"
         style="fill:#9bbbeb;fill-opacity:1;fill-rule:nonzero;stroke:none"
         d="m 4083.36,3439.65 h -32.51 c -1.06,19.74 -1.94,39.19 -2.63,58.37 h 32.59 c 0.66,-19.19 1.51,-38.62 2.55,-58.37" /><path
         id="path492"
         style="fill:#6f95d3;fill-opacity:1;fill-rule:nonzero;stroke:none"
         d="m 4473.17,3010.92 h -28.61 c 2.41,85.32 2.12,176.55 -0.79,274.22 -0.52,17.52 -0.81,34.8 -0.88,51.85 h 30.28 c 11.39,0 20.63,-9.23 20.63,-20.63 v -284.81 c 0,-11.4 -9.24,-20.63 -20.63,-20.63 m -60.86,0 h -303.37 c 3.86,65.87 1.94,135.14 -6.55,207.55 -4.76,40.51 -8.74,80.02 -11.98,118.52 h 320.24 c 0.08,-17.37 0.38,-34.97 0.91,-52.82 2.87,-96.78 3.2,-187.73 0.75,-273.25 m -335.71,0 h -178.09 c -11.4,0 -20.63,9.23 -20.63,20.63 v 284.81 c 0,11.4 9.23,20.63 20.63,20.63 h 159.46 c 3.35,-39.69 7.45,-80.42 12.37,-122.23 8.36,-71.17 10.17,-139.22 6.26,-203.84" /><path
         id="path494"
         style="fill:#7ba2da;fill-opacity:1;fill-rule:nonzero;stroke:none"
         d="m 4444.56,3010.92 h -32.25 c 2.45,85.52 2.12,176.47 -0.75,273.25 -0.53,17.85 -0.83,35.45 -0.91,52.82 h 32.24 c 0.07,-17.05 0.36,-34.33 0.88,-51.85 2.91,-97.67 3.2,-188.9 0.79,-274.22" /><path
         id="path496"
         style="fill:#7ba2da;fill-opacity:1;fill-rule:nonzero;stroke:none"
         d="m 4108.94,3010.92 h -32.34 c 3.91,64.62 2.1,132.67 -6.26,203.84 -4.92,41.81 -9.02,82.54 -12.37,122.23 h 32.44 c 3.24,-38.5 7.22,-78.01 11.98,-118.52 8.49,-72.41 10.41,-141.68 6.55,-207.55" /><path
         id="path498"
         style="fill:#8bace4;fill-opacity:1;fill-rule:nonzero;stroke:none"
         d="m 4760.5,3439.65 h -165.05 c -16.12,0 -29.19,13.07 -29.19,29.18 0,16.12 13.07,29.19 29.19,29.19 h 165.05 c 16.12,0 29.19,-13.07 29.19,-29.19 0,-16.11 -13.07,-29.18 -29.19,-29.18" /><path
         id="path500"
         style="fill:#8bace4;fill-opacity:1;fill-rule:nonzero;stroke:none"
         d="m 4771.57,3284.66 h -173.44 c -10,0 -18.11,8.11 -18.11,18.11 0,10.01 8.11,18.12 18.11,18.12 h 173.44 c 10,0 18.12,-8.11 18.12,-18.12 0,-10 -8.12,-18.11 -18.12,-18.11" /><path
         id="path502"
         style="fill:#8bace4;fill-opacity:1;fill-rule:nonzero;stroke:none"
         d="m 4771.57,3202.81 h -173.44 c -10,0 -18.11,8.11 -18.11,18.11 0,10.01 8.11,18.12 18.11,18.12 h 173.44 c 10,0 18.12,-8.11 18.12,-18.12 0,-10 -8.12,-18.11 -18.12,-18.11" /><path
         id="path504"
         style="fill:#8bace4;fill-opacity:1;fill-rule:nonzero;stroke:none"
         d="m 4771.57,3120.95 h -173.44 c -10,0 -18.11,8.11 -18.11,18.12 0,10 8.11,18.11 18.11,18.11 h 173.44 c 10,0 18.12,-8.11 18.12,-18.11 0,-10.01 -8.12,-18.12 -18.12,-18.12" /><path
         id="path506"
         style="fill:#8bace4;fill-opacity:1;fill-rule:nonzero;stroke:none"
         d="m 4771.57,3039.1 h -173.44 c -10,0 -18.11,8.11 -18.11,18.11 0,10.01 8.11,18.12 18.11,18.12 h 173.44 c 10,0 18.12,-8.11 18.12,-18.12 0,-10 -8.12,-18.11 -18.12,-18.11" /><path
         id="path508"
         style="fill:#8bace4;fill-opacity:1;fill-rule:nonzero;stroke:none"
         d="m 4653.82,2883.44 h -215.16 c 1.04,15.87 1.98,31.97 2.8,48.3 h 212.36 c 13.34,0 24.16,-10.81 24.16,-24.15 0,-13.34 -10.82,-24.15 -24.16,-24.15 m -247.5,0 h -312.63 c 2.91,15.87 5.47,31.97 7.66,48.3 h 307.82 c -0.84,-16.28 -1.79,-32.44 -2.85,-48.3 m -345.5,0 h -49.09 c -13.34,0 -24.15,10.81 -24.15,24.15 0,13.34 10.81,24.15 24.15,24.15 h 57.02 c -2.27,-16.34 -4.92,-32.45 -7.93,-48.3" /><path
         id="path510"
         style="fill:#9bbbeb;fill-opacity:1;fill-rule:nonzero;stroke:none"
         d="m 4438.66,2883.44 h -32.34 c 1.06,15.86 2.01,32.02 2.85,48.3 h 32.29 c -0.82,-16.33 -1.76,-32.43 -2.8,-48.3" /><path
         id="path512"
         style="fill:#9bbbeb;fill-opacity:1;fill-rule:nonzero;stroke:none"
         d="m 4093.69,2883.44 h -32.87 c 3.01,15.85 5.66,31.96 7.93,48.3 h 32.6 c -2.19,-16.33 -4.75,-32.43 -7.66,-48.3" /><path
         id="path514"
         style="fill:#c2d7f4;fill-opacity:1;fill-rule:nonzero;stroke:none"
         d="M 1465.72,1981.74 H 654.297 c -29.645,0 -53.672,24.03 -53.672,53.68 v 577.01 c 0,29.64 24.027,53.67 53.672,53.67 h 952.743 c 29.64,0 53.67,-24.03 53.67,-53.67 v -187.91 c -45.96,-62.44 -83.06,-124.25 -112.46,-185.17 -16.89,18.92 -36.18,36.09 -56.33,45.54 -26.12,12.22 -44.29,16.65 -56.44,16.65 -16.84,0 -22.13,-8.51 -21.01,-16.65 1.67,-12.24 53.07,-37.94 78.05,-77.71 h -176.68 c -7.79,0 -14.1,-6.31 -14.1,-14.09 0,-7.78 6.31,-14.09 14.1,-14.09 h 144.72 c -0.85,-9.64 1.93,-19.82 2.9,-22.98 -0.19,-0.18 -0.38,-0.36 -0.57,-0.53 -5.92,3.04 -10.91,4.35 -15.1,4.35 -25.3,0 -21.65,-47.77 -21.52,-49.35 -0.01,-0.01 -0.02,-0.03 -0.03,-0.05 -39.48,-7.79 -3.42,-73.28 38.18,-100.41 1.71,-2.1 3.44,-4.19 5.2,-6.26 -1.4,-7.37 -2.7,-14.71 -3.9,-22.03 m -314.24,124.79 c -7.78,0 -14.09,-6.3 -14.09,-14.08 0,-7.78 6.31,-14.09 14.09,-14.09 h 189.21 c 7.78,0 14.09,6.31 14.09,14.09 0,7.78 -6.31,14.08 -14.09,14.08 h -189.21 m -271.062,0 c -7.781,0 -14.09,-6.3 -14.09,-14.08 0,-7.78 6.309,-14.09 14.09,-14.09 h 189.202 c 7.79,0 14.1,6.31 14.1,14.09 0,7.78 -6.31,14.08 -14.1,14.08 H 880.418 m 164.352,100.65 c -7.78,0 -14.09,-6.31 -14.09,-14.09 0,-7.78 6.31,-14.09 14.09,-14.09 h 189.2 c 7.79,0 14.1,6.31 14.1,14.09 0,7.78 -6.31,14.09 -14.1,14.09 h -189.2 m -288.473,0 c -7.781,0 -14.09,-6.31 -14.09,-14.09 0,-7.78 6.309,-14.09 14.09,-14.09 h 189.207 c 7.777,0 14.086,6.31 14.086,14.09 0,7.78 -6.309,14.09 -14.086,14.09 H 756.297 m 439.433,367.99 c -4.45,0 -8.05,-3.61 -8.05,-8.06 v -265.09 h 314 c 4.45,0 8.05,3.6 8.05,8.05 0,4.45 -3.6,8.06 -8.05,8.06 h -42.94 v 90.79 h -40.25 v -90.79 h -41.6 v 181.58 h -40.26 v -181.58 h -42.94 v 120.46 h -40.25 v -120.46 h -49.66 v 248.98 c 0,4.45 -3.6,8.06 -8.05,8.06 m -310.238,8.16 c -75.359,0 -136.551,-61.18 -136.551,-136.71 0,-75.35 61.192,-136.54 136.551,-136.54 37.844,0 71.977,15.29 96.617,40.09 l -96.617,96.45 43.801,129.47 c -13.688,4.67 -28.5,7.24 -43.801,7.24 m 75.762,-16.22 -37.195,-109.94 82.051,-81.92 c 21.06,20.92 34.05,49.92 34.05,81.92 0,51.14 -33.09,94.49 -78.906,109.94" /><path
         id="path516"
         style="fill:#aec6ed;fill-opacity:1;fill-rule:nonzero;stroke:none"
         d="m 1489.96,1981.74 h -24.24 c 1.2,7.32 2.5,14.66 3.9,22.03 6.55,-7.74 13.38,-15.2 20.34,-22.03 m 118.71,170.3 c 0,0 -24.92,47.54 -60.42,87.31 29.4,60.92 66.5,122.73 112.46,185.17 v -207.54 c -27.35,44.36 -57.28,58.47 -72.52,58.47 -4.01,0 -7.01,-0.97 -8.67,-2.64 -9.02,-9.18 40.25,-90.65 29.15,-120.77" /><path
         id="path518"
         style="fill:#7496cf;fill-opacity:1;fill-rule:nonzero;stroke:none"
         d="m 1607.04,1981.74 h -117.08 c -6.96,6.83 -13.79,14.29 -20.34,22.03 -1.76,2.07 -3.49,4.16 -5.2,6.26 8.48,-5.53 17.18,-9.47 25.53,-11 3.39,-0.62 6.31,-0.91 8.81,-0.91 33.96,0 -8.81,53.25 -8.81,53.25 0,0 28.8,-23.19 44.74,-23.19 3.13,0 5.77,0.9 7.59,3.05 11.07,13.09 -23.14,52.64 -23.14,52.64 0,0 18.18,-18.83 31.86,-18.83 5.89,0 10.94,3.5 13.35,13.5 5.82,24.25 -32.05,75.91 -52.9,102 4.56,2.34 7.68,7.08 7.68,12.55 0,7.78 -6.31,14.09 -14.09,14.09 h -12.52 c -24.98,39.77 -76.38,65.47 -78.05,77.71 -1.12,8.14 4.17,16.65 21.01,16.65 12.15,0 30.32,-4.43 56.44,-16.65 20.15,-9.45 39.44,-26.62 56.33,-45.54 35.5,-39.77 60.42,-87.31 60.42,-87.31 11.1,30.12 -38.17,111.59 -29.15,120.77 1.66,1.67 4.66,2.64 8.67,2.64 15.24,0 45.17,-14.11 72.52,-58.47 v -181.56 c 0,-29.65 -24.03,-53.68 -53.67,-53.68 m -180.8,128.7 c 0.01,0.02 0.02,0.04 0.03,0.05 0,-0.03 0,-0.04 0,-0.04 -0.01,0 -0.02,0 -0.03,-0.01 m 37.54,44.58 c -0.3,0.16 -0.6,0.31 -0.89,0.47 0.19,0.17 0.38,0.35 0.57,0.53 0.2,-0.65 0.32,-1 0.32,-1" /><path
         id="path520"
         style="fill:#87a4de;fill-opacity:1;fill-rule:nonzero;stroke:none"
         d="m 1498.76,1998.12 c -2.5,0 -5.42,0.29 -8.81,0.91 -8.35,1.53 -17.05,5.47 -25.53,11 -41.6,27.13 -77.66,92.62 -38.18,100.41 0.01,0.01 0.02,0.01 0.03,0.01 0,0 0,0.01 0,0.04 -0.13,1.58 -3.78,49.35 21.52,49.35 4.19,0 9.18,-1.31 15.1,-4.35 0.29,-0.16 0.59,-0.31 0.89,-0.47 0,0 -0.12,0.35 -0.32,1 -0.97,3.16 -3.75,13.34 -2.9,22.98 h 44.48 c 2.31,0 4.49,0.56 6.41,1.54 20.85,-26.09 58.72,-77.75 52.9,-102 -2.41,-10 -7.46,-13.5 -13.35,-13.5 -13.68,0 -31.86,18.83 -31.86,18.83 0,0 34.21,-39.55 23.14,-52.64 -1.82,-2.15 -4.46,-3.05 -7.59,-3.05 -15.94,0 -44.74,23.19 -44.74,23.19 0,0 42.77,-53.25 8.81,-53.25" /><path
         id="path522"
         style="fill:#4f7eb7;fill-opacity:1;fill-rule:nonzero;stroke:none"
         d="m 615.219,2697.65 c -25.156,0 -45.625,-20.47 -45.625,-45.62 v -577.02 c 0,-25.16 20.469,-45.62 45.625,-45.62 h 952.741 c 25.16,0 45.62,20.46 45.62,45.62 v 577.02 c 0,25.15 -20.46,45.62 -45.62,45.62 z M 1567.96,2013.29 H 615.219 c -34.031,0 -61.727,27.7 -61.727,61.72 v 577.02 c 0,34.03 27.696,61.72 61.727,61.72 h 952.741 c 34.03,0 61.73,-27.69 61.73,-61.72 v -577.02 c 0,-34.02 -27.7,-61.72 -61.73,-61.72" /><path
         id="path524"
         style="fill:#90b1e1;fill-opacity:1;fill-rule:nonzero;stroke:none"
         d="m 885.492,2310.08 c -75.359,0 -136.551,61.19 -136.551,136.54 0,75.53 61.192,136.71 136.551,136.71 15.301,0 30.113,-2.57 43.801,-7.24 l -43.801,-129.47 96.617,-96.45 c -24.64,-24.8 -58.773,-40.09 -96.617,-40.09" /><path
         id="path526"
         style="fill:#a482a0;fill-opacity:1;fill-rule:nonzero;stroke:none"
         d="m 1006.11,2375.25 -82.051,81.92 37.195,109.94 c 45.816,-15.45 78.906,-58.8 78.906,-109.94 0,-32 -12.99,-61 -34.05,-81.92" /><path
         id="path528"
         style="fill:#9bbbeb;fill-opacity:1;fill-rule:nonzero;stroke:none"
         d="m 1501.68,2302.02 h -314 v 265.09 c 0,4.45 3.6,8.06 8.05,8.06 4.45,0 8.05,-3.61 8.05,-8.06 v -248.98 h 49.66 40.25 42.94 40.26 41.6 40.25 42.94 c 4.45,0 8.05,-3.61 8.05,-8.06 0,-4.45 -3.6,-8.05 -8.05,-8.05" /><path
         id="path530"
         style="fill:#9bbbeb;fill-opacity:1;fill-rule:nonzero;stroke:none"
         d="m 1253.44,2318.13 h 40.25 v 120.461 h -40.25 z" /><path
         id="path532"
         style="fill:#a482a0;fill-opacity:1;fill-rule:nonzero;stroke:none"
         d="m 1336.63,2318.13 h 40.2617 v 181.582 H 1336.63 Z" /><path
         id="path534"
         style="fill:#9bbbeb;fill-opacity:1;fill-rule:nonzero;stroke:none"
         d="m 1418.49,2318.13 h 40.25 v 90.793 h -40.25 z" /><path
         id="path536"
         style="fill:#9bbbeb;fill-opacity:1;fill-rule:nonzero;stroke:none"
         d="M 945.504,2179 H 756.297 c -7.781,0 -14.09,6.31 -14.09,14.09 0,7.78 6.309,14.09 14.09,14.09 h 189.207 c 7.777,0 14.086,-6.31 14.086,-14.09 0,-7.78 -6.309,-14.09 -14.086,-14.09" /><path
         id="path538"
         style="fill:#9bbbeb;fill-opacity:1;fill-rule:nonzero;stroke:none"
         d="m 1233.97,2179 h -189.2 c -7.78,0 -14.09,6.31 -14.09,14.09 0,7.78 6.31,14.09 14.09,14.09 h 189.2 c 7.79,0 14.1,-6.31 14.1,-14.09 0,-7.78 -6.31,-14.09 -14.1,-14.09" /><path
         id="path540"
         style="fill:#9bbbeb;fill-opacity:1;fill-rule:nonzero;stroke:none"
         d="m 1460.56,2179 h -144.72 c -7.79,0 -14.1,6.31 -14.1,14.09 0,7.78 6.31,14.09 14.1,14.09 h 176.68 c 2.24,-3.57 4.27,-7.25 6.03,-11.05 -0.12,0.13 -0.18,0.2 -0.18,0.2 -6.38,1.79 -11.73,2.58 -16.22,2.58 -15.67,0 -20.69,-9.66 -21.59,-19.91" /><path
         id="path542"
         style="fill:#5d82c7;fill-opacity:1;fill-rule:nonzero;stroke:none"
         d="m 1511.45,2180.54 c -6.88,8.62 -11.91,14.45 -12.9,15.59 -1.76,3.8 -3.79,7.48 -6.03,11.05 h 12.52 c 7.78,0 14.09,-6.31 14.09,-14.09 0,-5.47 -3.12,-10.21 -7.68,-12.55" /><path
         id="path544"
         style="fill:#6c8ed6;fill-opacity:1;fill-rule:nonzero;stroke:none"
         d="m 1505.04,2179 h -44.48 c 0.9,10.25 5.92,19.91 21.59,19.91 4.49,0 9.84,-0.79 16.22,-2.58 0,0 0.06,-0.07 0.18,-0.2 0.99,-1.14 6.02,-6.97 12.9,-15.59 -1.92,-0.98 -4.1,-1.54 -6.41,-1.54" /><path
         id="path546"
         style="fill:#9bbbeb;fill-opacity:1;fill-rule:nonzero;stroke:none"
         d="M 1069.62,2078.36 H 880.418 c -7.781,0 -14.09,6.31 -14.09,14.09 0,7.78 6.309,14.08 14.09,14.08 h 189.202 c 7.79,0 14.1,-6.3 14.1,-14.08 0,-7.78 -6.31,-14.09 -14.1,-14.09" /><path
         id="path548"
         style="fill:#9bbbeb;fill-opacity:1;fill-rule:nonzero;stroke:none"
         d="m 1340.69,2078.36 h -189.21 c -7.78,0 -14.09,6.31 -14.09,14.09 0,7.78 6.31,14.08 14.09,14.08 h 189.21 c 7.78,0 14.09,-6.3 14.09,-14.08 0,-7.78 -6.31,-14.09 -14.09,-14.09" /></g></g></svg>